<svg width="45" height="35" viewBox="0 0 45 35" fill="none" xmlns="http://www.w3.org/2000/svg">
<path fill-rule="evenodd" clip-rule="evenodd" d="M9.49556 0.148849C8.51259 0.414469 7.56901 1.13039 7.06666 1.99193C6.94154 2.20647 6.05432 4.50869 5.09509 7.10807L3.35091 11.8341L2.70357 12.4339C1.164 13.8606 0.702099 14.4734 0.269394 15.6638L0.0338291 16.312L0.00903279 23.7485C-0.0184014 31.9543 -0.0166428 31.9862 0.519468 32.9279C1.08363 33.9188 2.05447 34.6416 3.12827 34.8703C3.83778 35.0213 6.57751 35.0479 7.29766 34.9106C8.75237 34.6334 9.9841 33.4985 10.4033 32.0493C10.5009 31.7119 10.5415 31.1929 10.5415 30.2818V28.9921H22.5H34.4585V30.2818C34.4585 31.1929 34.4991 31.7119 34.5967 32.0493C35.0159 33.4985 36.2476 34.6334 37.7023 34.9106C38.4225 35.0479 41.1622 35.0213 41.8717 34.8703C42.9455 34.6416 43.9164 33.9188 44.4805 32.9279C45.0175 31.9846 45.0182 31.9717 44.991 23.5721L44.9662 15.9585L44.7306 15.3104C44.3827 14.3532 44.0031 13.7719 43.1101 12.8283L42.3093 11.9822L40.533 7.16639C39.5561 4.5177 38.6641 2.19128 38.5509 1.99652C38.054 1.1417 37.0688 0.415264 36.0297 0.137362C35.3182 -0.0529725 10.202 -0.0421037 9.49556 0.148849ZM36.032 2.1858C36.3059 2.32294 36.5983 2.55913 36.7435 2.76051C36.879 2.94855 37.3764 4.14605 37.8487 5.42157C38.3211 6.69709 39.0132 8.56589 39.3867 9.57429L40.0658 11.4078H38.9499H37.8339L37.6811 10.7686C37.1382 8.49511 35.3202 6.64531 32.9637 5.96854C32.1946 5.74763 30.5154 5.74189 29.7103 5.95749C27.3459 6.59044 25.3846 8.59487 24.8705 10.9037L24.7582 11.4078H15.154H5.54969L6.22878 9.57429C6.6023 8.56589 7.2944 6.69709 7.76676 5.42157C8.23912 4.14605 8.73655 2.94855 8.87205 2.76051C9.01722 2.55913 9.30959 2.32294 9.58349 2.1858L10.0485 1.95296H22.8078H35.567L36.032 2.1858ZM32.8986 7.99099C34.1933 8.48874 35.1156 9.40808 35.6325 10.716C35.7606 11.0401 35.8654 11.3285 35.8654 11.3567C35.8654 11.3848 33.807 11.4078 31.2913 11.4078H26.7173L26.776 11.1648C26.882 10.7262 27.2409 9.9835 27.5543 9.55449C28.0914 8.81922 29.2455 8.05603 30.1833 7.81595C30.8989 7.63268 32.1818 7.71539 32.8986 7.99099ZM41.7098 14.1447C42.4941 15.0168 42.8572 15.6425 42.9876 16.3461C43.0389 16.6236 43.0749 18.6132 43.0737 21.1177C43.0719 25.2504 43.065 25.4285 42.8924 25.811C42.6513 26.3454 42.4125 26.5898 41.8886 26.8381L41.449 27.0463H22.5H3.55104L3.11139 26.8381C2.5875 26.5898 2.34868 26.3454 2.10757 25.811C1.93514 25.4289 1.92811 25.2498 1.92626 21.2126C1.9238 15.7699 1.88968 15.9124 3.58858 14.258L4.51827 13.3526L22.7638 13.3592L41.0093 13.3659L41.7098 14.1447ZM5.02308 17.3569C4.53014 17.632 4.52047 17.6896 4.49163 20.5099C4.46235 23.3713 4.4998 23.661 4.94227 23.9911C5.18276 24.1706 5.29759 24.1772 8.6793 24.2045C12.7664 24.2375 12.9897 24.2207 13.3547 23.854L13.619 23.5883V20.7717C13.619 18.9347 13.5859 17.8818 13.5236 17.7445C13.2955 17.2416 13.2772 17.2395 9.0771 17.2429C6.15465 17.2453 5.17361 17.2728 5.02308 17.3569ZM31.8053 17.3911C31.676 17.4717 31.5276 17.6316 31.4756 17.7464C31.4144 17.8813 31.3809 18.9494 31.3809 20.7717V23.5883L31.6453 23.854C32.0103 24.2207 32.2336 24.2375 36.3207 24.2045C39.7024 24.1772 39.8172 24.1706 40.0577 23.9911C40.5002 23.661 40.5376 23.3713 40.5084 20.5099C40.4847 18.1921 40.4645 17.8771 40.3266 17.6731C40.0378 17.246 39.9725 17.2396 35.8832 17.2422C32.4595 17.2442 32.0147 17.2605 31.8053 17.3911ZM17.3456 18.4689C16.8201 18.7908 16.7696 19.4972 17.2395 19.9496L17.4995 20.2H22.5H27.5005L27.7605 19.9496C28.0815 19.6406 28.165 19.2681 28.0014 18.8749C27.7573 18.2876 27.8771 18.3002 22.4824 18.3005C17.8583 18.3008 17.6064 18.3091 17.3456 18.4689ZM11.6846 20.7315V22.2791L9.06866 22.2557L6.45273 22.2323L6.42864 20.708L6.40464 19.1838H9.04456H11.6846V20.7315ZM38.5714 20.708L38.5473 22.2323L35.9313 22.2557L33.3154 22.2791V20.7315V19.1838H35.9554H38.5954L38.5714 20.708ZM17.2864 21.4826C17.1625 21.5805 17.0167 21.7959 16.9624 21.961C16.8371 22.3425 17.0115 22.8088 17.3668 23.0428C17.597 23.1943 17.9137 23.2043 22.5 23.2043C27.0863 23.2043 27.403 23.1943 27.6332 23.0428C27.9885 22.8088 28.1629 22.3425 28.0376 21.961C27.9833 21.7959 27.8375 21.5805 27.7136 21.4826C27.4937 21.3088 27.3681 21.3045 22.5 21.3045C17.6319 21.3045 17.5063 21.3088 17.2864 21.4826ZM5.81524 28.9756L8.60702 29.0033V30.2377C8.60702 31.085 8.56913 31.5631 8.48612 31.7627C8.29329 32.2266 7.85258 32.6656 7.37073 32.8739C6.95262 33.0547 6.81254 33.0651 5.14266 33.0397L3.36067 33.0126L2.9306 32.7452C2.6647 32.5799 2.39889 32.3128 2.23437 32.0457L1.96829 31.6135L1.94086 30.0457L1.91343 28.478L2.46844 28.713L3.02346 28.9479L5.81524 28.9756ZM42.9932 31.5625C42.8419 32.0843 42.4296 32.5704 41.9233 32.824C41.4685 33.0518 41.4211 33.0568 39.7391 33.0559C38.1204 33.0551 37.9937 33.0429 37.5764 32.8476C37.1025 32.6259 36.7038 32.2173 36.5115 31.7563C36.4312 31.5637 36.393 31.0737 36.393 30.2377V29.0033L39.1848 28.9756C41.9354 28.9484 41.9843 28.9446 42.5041 28.7264L43.0317 28.5049L43.0584 29.8751C43.0736 30.6549 43.0455 31.382 42.9932 31.5625Z" fill="white"/>
</svg>
