<svg width="45" height="44" viewBox="0 0 45 44" fill="none" xmlns="http://www.w3.org/2000/svg">
<path fill-rule="evenodd" clip-rule="evenodd" d="M11.5344 0.13104C11.4308 0.203151 11.3242 0.370071 11.2974 0.502071C11.2707 0.634071 11.1075 2.41171 10.9348 4.45238C10.7619 6.49306 10.6018 8.25175 10.5787 8.36061L10.5368 8.55852L8.32896 8.53521L6.12103 8.5119L6.00754 8.13013C5.86637 7.65495 5.52336 7.29117 5.04577 7.11002C4.74319 6.9953 4.36379 6.97592 2.87836 6.99932C1.09361 7.02752 1.07445 7.02987 0.721417 7.2621C0.504553 7.40475 0.290766 7.64902 0.17517 7.88621C-0.00925625 8.26449 -0.0140911 8.35825 0.0106984 11.0636L0.036191 13.8512L0.288129 14.1791C0.78339 14.8236 0.854242 14.8407 3.02499 14.8395C4.86837 14.8385 4.97527 14.8292 5.30878 14.6416C5.69662 14.4234 6.05405 13.8823 6.05633 13.5099L6.05774 13.2698H8.16748H10.2772L10.2805 13.5536C10.2884 14.2495 9.55999 38.5821 9.52166 38.9034L9.47868 39.2632L8.84505 39.3043C7.83563 39.3698 7.14935 39.8321 6.75914 40.7094C6.55458 41.1692 6.42026 42.7354 6.53366 43.3362C6.64196 43.9095 6.81478 44 7.80056 44C8.58969 44 8.68076 43.9825 8.85543 43.798C9.28124 43.3478 8.92742 42.6905 8.25934 42.6905H7.90376V41.9602C7.90376 41.1514 8.0285 40.8844 8.49607 40.692C8.67522 40.6183 9.97482 40.5972 13.2443 40.6147L17.746 40.6389L18.0332 40.9243C18.3056 41.1947 18.3222 41.2484 18.3516 41.9501L18.3826 42.6905H14.6033C10.4037 42.6905 10.516 42.6749 10.3995 43.274C10.3559 43.4982 10.3891 43.5953 10.5711 43.776L10.7966 44H15.0577H19.3188L19.5086 43.7604C19.687 43.535 19.6965 43.4448 19.667 42.2544C19.6399 41.1577 19.61 40.94 19.4439 40.6288C19.1508 40.0797 18.8638 39.7832 18.3957 39.5458C18.0316 39.3611 17.8236 39.3251 16.98 39.3C16.0667 39.273 15.9911 39.2576 15.9911 39.0997C15.9911 38.5987 15.2882 15.4853 15.2421 14.4702L15.1875 13.2698H17.0398H18.892L18.8939 15.0813C18.896 17.1033 18.9569 17.3798 19.4988 17.8327C19.9801 18.2349 20.2202 18.2597 23.3378 18.2301L26.2454 18.2024L26.6015 17.9682C26.7973 17.8394 27.0516 17.584 27.1663 17.4007C27.3665 17.081 27.376 16.9905 27.403 15.1687L27.4312 13.2698H30.8533H34.2755V16.8705V20.4712L31.529 23.1999L28.7824 25.9286H27.9378C27.2061 25.9286 27.0533 25.955 26.7945 26.1267C26.3278 26.4363 26.1884 26.8046 26.1883 27.728L26.1882 28.5236L25.6971 28.5809C25.0776 28.6533 24.7326 28.8293 24.5144 29.1848C24.2622 29.5955 24.2622 31.341 24.5144 31.7517C24.8222 32.2531 25.1186 32.3445 26.4374 32.3449L27.6097 32.3452L27.8219 32.1003C28.0599 31.8256 28.0786 31.7082 27.9341 31.3934C27.7953 31.0906 27.4389 30.9921 26.4827 30.9921H25.6607V30.4683V29.9444H34.6711H43.6814V30.4683V30.9921H36.8818C32.144 30.9921 29.9977 31.0213 29.8035 31.0885C29.1145 31.3271 29.2453 32.2106 29.9897 32.3453C30.1471 32.3738 33.3811 32.3854 37.1764 32.3712C43.7878 32.3463 44.0886 32.3383 44.3544 32.1785C44.8494 31.881 45 31.4834 45 30.4738C45 29.4972 44.916 29.2371 44.4839 28.876C44.3416 28.7571 44.0633 28.6341 43.8654 28.6027L43.5056 28.5455L43.5054 27.739C43.5053 26.8038 43.3676 26.4375 42.8992 26.1267C42.6433 25.9569 42.486 25.9286 41.7999 25.9286H40.9992L38.2967 23.2435L35.5941 20.5585V16.9142V13.2698H37.611C39.5993 13.2698 39.6313 13.267 39.8673 13.0654C40.3213 12.6776 40.2439 12.5064 38.7514 10.5967C38.006 9.64298 37.327 8.79363 37.2423 8.70912C37.1178 8.5848 36.9347 8.55556 36.2803 8.55556C35.5477 8.55556 35.3894 8.52343 34.5881 8.21167C34.1019 8.02249 29.2165 6.09749 23.7317 3.9339L13.7592 0H12.741C11.9778 0 11.6756 0.0328254 11.5344 0.13104ZM13.0023 1.48657C13.0023 1.694 13.5014 7.42448 13.5781 8.09722L13.6303 8.55556H12.7889H11.9474L11.947 8.31548C11.9465 7.99412 12.4651 1.9539 12.5243 1.59325C12.562 1.36278 12.6112 1.30952 12.7865 1.30952C12.9446 1.30952 13.0023 1.35675 13.0023 1.48657ZM23.1157 5.10714L31.7487 8.5119L26.8069 8.55556L21.8651 8.59921L21.6971 8.80533C21.4687 9.08556 21.4861 9.39374 21.745 9.65075L21.9607 9.86508L29.2389 9.86814L36.5171 9.87119L37.2863 10.8644C37.7094 11.4107 38.0554 11.8808 38.0554 11.9092C38.0554 11.9375 30.8659 11.9509 22.0786 11.9388L6.10169 11.9167L6.0769 10.8909L6.0522 9.86508H12.9156H19.779L19.9948 9.65075C20.2698 9.37768 20.2698 9.04296 19.9948 8.76988L19.779 8.55556H17.3576C16.0258 8.55556 14.9362 8.52491 14.9362 8.48755C14.9362 8.35066 14.4122 2.38918 14.3679 2.02269C14.3425 1.81177 14.3577 1.65742 14.4025 1.67348C14.4466 1.68937 18.3675 3.23452 23.1157 5.10714ZM4.63067 8.36646C4.71709 8.42094 4.73669 8.99983 4.71858 10.9624L4.6952 13.4881H3.02499H1.35478L1.33139 11.0106C1.31487 9.25563 1.3372 8.4982 1.40814 8.41334C1.48585 8.32037 1.84415 8.29391 3.01374 8.29496C3.8419 8.29575 4.56949 8.32787 4.63067 8.36646ZM13.266 13.3157C13.266 13.3408 12.8902 13.8577 12.4309 14.4642L11.5958 15.567V14.4184V13.2698H12.4309C12.8902 13.2698 13.266 13.2904 13.266 13.3157ZM26.1003 14.966C26.1003 16.3916 26.0782 16.684 25.9622 16.7994C25.8426 16.918 25.4642 16.9365 23.1554 16.9365C20.8467 16.9365 20.4682 16.918 20.3487 16.7994C20.2326 16.684 20.2106 16.3916 20.2106 14.966V13.2698H23.1554H26.1003V14.966ZM14.0258 18.6555C13.9909 18.6902 12.0353 17.2831 12.0353 17.2232C12.0353 17.1645 12.4823 16.5609 13.3466 15.4524L13.9253 14.7103L13.9869 16.6715C14.0209 17.7502 14.0384 18.643 14.0258 18.6555ZM12.5294 19.2556C13.0312 19.6188 13.4418 19.9324 13.4418 19.9526C13.4418 20.005 11.4123 22.7857 11.3741 22.7857C11.3301 22.7857 11.4174 19.4232 11.4733 18.9663C11.4982 18.7622 11.5408 18.5952 11.5678 18.5952C11.5948 18.5952 12.0275 18.8924 12.5294 19.2556ZM14.223 24.9028C14.2285 25.6111 14.2139 26.1905 14.1907 26.1905C14.1067 26.1905 11.9151 24.5661 11.8889 24.4845C11.8741 24.4384 12.3659 23.7133 12.9815 22.873L14.1011 21.3452L14.157 22.4802C14.1878 23.1044 14.2174 24.1945 14.223 24.9028ZM34.2755 24.1389V25.9286H32.4522H30.629L32.4295 24.1389C33.4197 23.1546 34.2402 22.3492 34.2527 22.3492C34.2652 22.3492 34.2755 23.1546 34.2755 24.1389ZM37.3961 24.1825L39.1526 25.9286H37.3734H35.5941V24.1825C35.5941 23.2222 35.6044 22.4365 35.6168 22.4365C35.6294 22.4365 36.4301 23.2222 37.3961 24.1825ZM12.0793 26.3228C12.4177 26.5688 12.9219 26.9353 13.1996 27.1374L13.7046 27.5048L12.4524 29.0691C11.7637 29.9295 11.1804 30.6356 11.1563 30.6383C11.1321 30.6409 11.1376 29.8475 11.1687 28.8752C11.1996 27.9027 11.2293 26.8004 11.2346 26.4254C11.2419 25.9048 11.2702 25.7593 11.3541 25.8097C11.4145 25.8459 11.7408 26.0768 12.0793 26.3228ZM42.187 27.8929V28.5476H34.8469H27.5067V27.8929V27.2381H34.8469H42.187V27.8929ZM14.4488 31.7623L14.5127 34.3224L13.0762 33.2964C12.2861 32.7322 11.6267 32.2613 11.6107 32.25C11.5948 32.2387 12.1869 31.4784 12.9264 30.5605C13.9657 29.2706 14.284 28.9269 14.3279 29.047C14.3592 29.1325 14.4135 30.3543 14.4488 31.7623ZM12.4813 34.4918L13.7116 35.3754L13.4168 35.7373C13.2546 35.9364 12.6145 36.7278 11.9945 37.496L10.8669 38.8929L10.9235 36.9722C10.9546 35.9159 10.9801 34.7036 10.9803 34.2784C10.9805 33.6184 11.0002 33.5126 11.1157 33.5566C11.1901 33.585 11.8047 34.0059 12.4813 34.4918ZM14.651 39.2489C14.6277 39.272 14.085 39.28 13.4451 39.2665L12.2816 39.2421L13.4111 37.8381L14.5406 36.4342L14.6169 37.8205C14.659 38.583 14.6743 39.2257 14.651 39.2489Z" fill="white"/>
</svg>
