<svg width="27" height="27" viewBox="0 0 27 27" fill="none" xmlns="http://www.w3.org/2000/svg">
<path fill-rule="evenodd" clip-rule="evenodd" d="M4.65983 0.0712936C4.00722 0.213286 3.88149 0.311767 2.17585 2.01794C0.687385 3.50688 0.572271 3.63562 0.397645 4.00599C0.109912 4.61636 0.0380978 4.94797 0.00694302 5.81096C-0.0245286 6.6824 0.0466522 7.25818 0.309884 8.26052C1.89566 14.2991 9.00366 22.2411 15.8068 25.5758C17.8243 26.5647 19.3475 26.9949 20.8497 26.9999C21.7692 27.003 22.2342 26.91 22.8714 26.5956C23.2817 26.3931 23.3896 26.2972 24.8708 24.8175C26.5295 23.1604 26.6286 23.0351 26.8371 22.3328C26.9468 21.9631 26.9468 21.2697 26.8371 20.8999C26.6481 20.2629 26.5711 20.1703 24.4732 18.0602C23.3661 16.9466 22.3176 15.9339 22.1434 15.8099C21.0957 15.064 19.7505 15.1674 18.8741 16.0612C18.609 16.3317 18.5069 16.49 18.3237 16.9154C18.2 17.2026 18.0346 17.5247 17.9561 17.631C17.4515 18.3148 16.4772 18.7501 15.6484 18.6622C14.4128 18.531 12.5694 17.4146 11.0078 15.8518C9.1173 13.9598 8.00227 11.7829 8.27421 10.515C8.40084 9.92456 8.81531 9.30674 9.30549 8.97761C9.42515 8.89729 9.6775 8.76576 9.86628 8.68539C10.4147 8.45173 10.5496 8.37511 10.8042 8.15275C11.6829 7.38518 11.8752 5.94857 11.2356 4.93007C11.0474 4.63035 7.40626 0.946163 6.96202 0.605942C6.60785 0.334684 6.14301 0.125788 5.72459 0.0497493C5.32818 -0.0222764 5.06543 -0.0169432 4.65983 0.0712936Z" fill="#56AC68"/>
</svg>
