<svg width="54" height="45" viewBox="0 0 54 45" fill="none" xmlns="http://www.w3.org/2000/svg">
<path fill-rule="evenodd" clip-rule="evenodd" d="M23.04 0.0613998C22.0529 0.301254 21.3136 0.887882 20.8558 1.79466C20.5511 2.39805 20.5095 2.57858 20.5182 3.25609C20.5333 4.41804 21.0587 5.37303 21.9924 5.9354L22.3543 6.15336V9.2184C22.3543 11.9763 22.3335 12.3489 22.1468 12.9369C22.0326 13.2962 21.1858 15.0777 20.2647 16.8956C19.3438 18.7136 18.4403 20.6417 18.2569 21.1805L17.9237 22.16V28.9528C17.9237 32.971 17.8844 35.7456 17.8276 35.7456C17.6399 35.7456 17.1926 35.1172 17.123 34.756C17.083 34.548 17.1093 34.2045 17.1836 33.9624C17.3556 33.4033 17.3419 32.8492 17.1474 32.4891C16.9422 32.1091 15.5426 30.5893 15.2502 30.4289C14.9042 30.239 14.6697 30.2716 14.385 30.5491C13.9293 30.9932 14.0266 31.2931 14.9547 32.3042L15.7835 33.2071L15.6326 33.6796C15.3001 34.7214 15.6974 35.9737 16.6084 36.7551C17.2584 37.3128 17.9377 37.525 18.9246 37.4785L19.6991 37.442L22.1871 40.134C23.5572 41.6166 24.6751 42.9123 24.6751 43.0178C24.6751 43.4525 24.6318 43.4563 19.6409 43.4563H14.8599L14.7336 43.1736C14.2943 42.1896 13.5934 41.6028 12.5447 41.3409C11.8206 41.1602 11.1701 41.2397 10.452 41.5967C9.93843 41.8521 9.23133 42.6027 9.05389 43.0809L8.91454 43.4563H5.61964C3.72334 43.4563 2.20934 43.4136 2.05289 43.3556C1.59211 43.1848 1.52839 42.8867 1.67482 41.5857C2.26767 36.3181 4.40112 31.6445 8.04646 27.6274C8.8215 26.7733 9.14588 26.5605 9.52976 26.6544C9.67376 26.6896 10.1753 27.1376 10.6545 27.6592C11.1302 28.1768 11.6556 28.7277 11.8222 28.8831C12.3906 29.4138 13.1766 29.1383 13.1766 28.4083C13.1766 28.1114 13.0105 27.8844 12.0115 26.8146C10.4706 25.1647 9.86027 24.8726 8.66252 25.2119C8.15944 25.3545 7.94898 25.4965 7.35454 26.0945C3.35191 30.1213 0.656197 35.8745 0.0810611 41.6181C-0.0375105 42.8018 -0.032447 42.9576 0.139187 43.3956C0.381077 44.0129 0.750506 44.436 1.29579 44.7203C1.71712 44.94 1.84708 44.948 5.42301 44.9762C9.08828 45.0052 9.11867 45.0038 9.58989 44.7706C9.96228 44.5865 10.1273 44.4151 10.3554 43.9763C10.7329 43.25 11.0183 42.9629 11.4851 42.8404C12.2781 42.6323 12.8835 43.0021 13.3828 43.9994C13.5935 44.4203 13.753 44.5858 14.1236 44.768L14.596 45L31.7405 44.9736L48.8852 44.9471L49.5835 44.6819C50.9382 44.1677 51.8383 43.482 52.5714 42.406C53.1831 41.5081 53.3999 40.7878 53.4512 39.4833C53.4927 38.4237 53.4794 38.3211 53.2741 38.121C52.9793 37.8337 52.3915 37.8318 52.1185 38.1174C51.9518 38.2917 51.9078 38.5204 51.8751 39.3827C51.8395 40.3194 51.7974 40.5101 51.4923 41.114C51.0577 41.9744 50.1373 42.8294 49.2845 43.1649L48.6742 43.4049L41.6616 43.4341C37.18 43.4528 34.468 43.4256 34.1476 43.3586C32.673 43.0503 31.4688 42.0019 30.9499 40.5743C30.5637 39.5116 30.8272 37.9594 31.9109 34.9136C32.6535 32.8264 32.4308 33.0349 34.1361 32.8318C36.4927 32.5514 36.1987 32.474 38.2995 33.9267C39.306 34.6228 40.2956 35.258 40.4987 35.3385C40.9709 35.5255 41.922 35.5113 42.3975 35.3101C42.6006 35.2242 43.5463 34.615 44.499 33.9565C45.4518 33.2981 46.3522 32.7297 46.4998 32.6935C46.7571 32.6306 48.8193 32.8062 49.5622 32.9543C49.9045 33.0225 49.9367 33.0716 50.3838 34.2056C50.6398 34.8547 50.9387 35.4745 51.0481 35.5829C51.3025 35.8349 51.8254 35.8359 52.1101 35.5849C52.3928 35.3355 52.35 34.8299 51.9659 33.8779L51.6891 33.1926H52.1478C53.4502 33.1926 54.3697 31.8382 53.8545 30.679C53.7735 30.497 53.0791 29.6167 52.3112 28.7227L50.915 27.0973L51.1867 26.8208C51.7827 26.2144 51.9474 25.255 51.5879 24.4838C51.386 24.0506 50.8645 23.5557 50.4471 23.4009C50.2174 23.3159 50.2037 23.2574 50.2015 22.3573C50.1989 21.2898 50.026 20.7801 49.5051 20.304C48.8371 19.6936 49.0124 19.7074 41.9267 19.7074H35.4361L34.327 17.5475C33.717 16.3595 33.1234 15.2955 33.0079 15.1829C32.7436 14.9253 32.1519 14.9118 31.93 15.1581C31.6066 15.5171 31.6261 15.7372 32.0591 16.6099C32.2914 17.078 32.4814 17.4806 32.4814 17.5046C32.4814 17.5287 30.0634 17.5484 27.1081 17.5484H21.7348L22.5136 15.9806C22.9418 15.1182 23.4372 13.9896 23.6145 13.4722L23.9366 12.5318V9.48838V6.44503H27.0943H30.2519L30.2854 9.53835L30.3188 12.6317L30.6148 12.8796C30.7776 13.0161 30.9771 13.1276 31.0582 13.1276C31.3095 13.1276 31.728 12.9024 31.8002 12.7282C31.8381 12.6369 31.8634 11.128 31.8566 9.37509L31.8441 6.188L32.2946 5.89541C32.5424 5.73451 32.8986 5.40717 33.0862 5.16803C34.3776 3.52134 33.7321 1.12979 31.7558 0.239157C31.2877 0.0281925 31.1104 0.0187341 27.3123 0.00197622C25.1366 -0.00768784 23.214 0.0190425 23.04 0.0613998ZM31.4613 1.84966C31.9662 2.22502 32.1649 2.61713 32.1649 3.23759C32.1649 3.79553 31.9051 4.26609 31.3925 4.63641C31.1048 4.84429 30.9646 4.85241 27.2256 4.87749C23.3805 4.9034 23.3538 4.90207 22.9345 4.67146C22.4576 4.4092 22.0378 3.72079 22.0378 3.20088C22.0378 2.66679 22.4639 2.01447 22.99 1.74336L23.4563 1.50299L27.2652 1.53229L31.074 1.56159L31.4613 1.84966ZM33.5443 19.5171L33.7676 19.9437L33.4381 20.195C32.9003 20.6052 32.6743 21.1645 32.6 22.2694L32.5341 23.2465L32.2027 23.3122C31.2715 23.4971 30.5685 24.3406 30.5608 25.2825C30.5545 26.0573 30.827 26.6052 31.4524 27.0751L31.7421 27.2929L30.3756 28.8963C28.9361 30.5854 28.7152 30.9897 28.8497 31.6887C28.9958 32.4473 29.7745 33.1754 30.4399 33.1754C30.6345 33.1754 30.7935 33.2097 30.7935 33.2518C30.7935 33.2938 30.5815 33.9299 30.3224 34.6654C28.6968 39.2799 28.785 40.813 30.8209 43.3278C30.9034 43.4298 30.4433 43.4563 28.5911 43.4563H26.2574L26.2547 43.0194C26.2531 42.7791 26.1701 42.4121 26.0701 42.2039C25.9701 41.9957 24.7027 40.5432 23.2538 38.9763C20.6829 36.1959 20.2903 35.8484 19.7204 35.8484C19.5071 35.8484 19.506 35.8152 19.506 29.1332C19.506 21.5528 19.4526 22.1015 20.3754 20.1958L20.9104 19.0906H27.1157H33.321L33.5443 19.5171ZM48.4285 21.4197C48.5842 21.5569 48.6215 21.7456 48.6215 22.3964V23.2029H41.3842H34.1469L34.1857 22.3713C34.2171 21.6958 34.2626 21.5124 34.428 21.3946C34.5983 21.2733 35.7444 21.2495 41.4335 21.2495C47.615 21.2495 48.2532 21.2651 48.4285 21.4197ZM49.9693 24.9051C50.2836 25.1196 50.2836 25.6042 49.9693 25.8187C49.7618 25.9604 48.7499 25.9788 41.1561 25.9788H32.5773L32.3184 25.7264C32.176 25.5876 32.0594 25.4236 32.0594 25.3619C32.0594 25.3002 32.176 25.1362 32.3184 24.9974L32.5773 24.7451H41.1561C48.7499 24.7451 49.7618 24.7635 49.9693 24.9051ZM50.705 29.256C52.5108 31.3658 52.532 31.3966 52.2928 31.5698C52.1467 31.6756 51.6897 31.6468 49.8137 31.4138C47.0701 31.0728 46.3 31.0536 45.7205 31.3116C45.4884 31.4149 44.5311 32.0325 43.593 32.684C42.6551 33.3355 41.7683 33.8976 41.6225 33.9333C41.2239 34.0308 41.0027 33.9143 39.1607 32.6363C38.2284 31.9894 37.2689 31.3834 37.0284 31.2897C36.4285 31.0558 35.6702 31.079 32.9719 31.4144C30.9915 31.6604 30.646 31.6804 30.5185 31.5563C30.4277 31.4676 30.4035 31.3536 30.4563 31.2619C30.5035 31.1796 31.2277 30.305 32.0656 29.3185L33.589 27.5249L41.4045 27.5229L49.22 27.5209L50.705 29.256ZM8.5084 32.1912C7.07985 32.688 6.44532 34.2486 7.14114 35.554C7.99371 37.1534 10.2268 37.3172 11.2981 35.8588C11.9984 34.9056 11.9268 33.7638 11.1116 32.8801C10.408 32.1174 9.4497 31.8638 8.5084 32.1912ZM9.91449 33.8872C10.3146 34.2771 10.3146 34.6439 9.91449 35.0339C9.58536 35.3546 9.29515 35.4076 8.92361 35.2148C8.58552 35.0392 8.43625 34.8082 8.43625 34.4605C8.43625 33.6744 9.33756 33.3249 9.91449 33.8872Z" fill="black"/>
</svg>
