<svg width="51" height="34" viewBox="0 0 51 34" fill="none" xmlns="http://www.w3.org/2000/svg">
<path fill-rule="evenodd" clip-rule="evenodd" d="M23.9622 0.0147483C15.9464 0.324957 10.0895 2.64898 6.5218 6.93505C6.13304 7.40211 5.71725 7.94236 5.59783 8.1355C5.39229 8.46815 5.33856 8.49288 4.58196 8.60326C2.82214 8.85982 1.43325 9.81657 0.646444 11.3145C-0.451273 13.4039 -0.13697 15.7044 1.48259 17.4363L2.08159 18.0768L2.08358 21.7535C2.08468 23.7756 2.12655 25.7132 2.17649 26.059C2.44394 27.9091 3.8745 29.3839 5.69433 29.6856L6.34536 29.7934L6.38872 30.7029C6.44126 31.8047 6.69176 32.4485 7.29585 33.0348C8.62184 34.3217 10.4939 34.3217 11.8199 33.0348C12.4265 32.4461 12.6744 31.8057 12.7276 30.6901L12.7716 29.7677H25.5056H38.2396L38.2879 30.6914C38.3446 31.7766 38.555 32.336 39.1484 32.98C40.0684 33.9783 41.4837 34.264 42.7948 33.716C43.3382 33.4888 44.0982 32.7172 44.3546 32.1323C44.5189 31.7573 44.5945 31.359 44.6258 30.7029L44.6692 29.7934L45.3202 29.6856C47.14 29.3839 48.5706 27.9091 48.838 26.059C48.888 25.7132 48.9298 23.7737 48.9309 21.7493L48.9329 18.0683L49.5305 17.4458C51.9261 14.9503 51.3098 10.8584 48.285 9.17561C47.6258 8.80887 46.6719 8.52907 46.0776 8.52818C45.7113 8.52758 45.6652 8.48899 45.0951 7.70554C44.7662 7.25344 44.0457 6.43479 43.4942 5.88637C40.269 2.67949 35.7158 0.804179 29.7101 0.20889C28.1872 0.0580238 25.3351 -0.0383989 23.9622 0.0147483ZM30.2921 2.39142C34.393 2.96427 37.303 3.95462 39.8617 5.64795C40.8347 6.2919 43.3507 8.67425 43.3507 8.95166C43.3507 9.02784 43.2028 9.16066 43.0223 9.24681C42.5462 9.47386 41.6259 10.3472 41.2574 10.9218C41.0823 11.1945 40.8239 11.7436 40.683 12.142C40.4474 12.808 40.423 13.0329 40.3811 14.9354L40.3354 17.0044H33.7845C26.6968 17.0044 26.7189 17.0029 25.8963 17.5474L25.5073 17.8049L25.1182 17.5474C24.2956 17.0029 24.3175 17.0044 17.2313 17.0044H10.6817L10.6276 15.0351C10.5694 12.9162 10.4858 12.4694 9.94853 11.4046C9.60043 10.7147 8.72711 9.75305 8.05952 9.32448L7.5634 9.0061L7.98745 8.49956C10.8951 5.02554 15.3722 2.93894 21.171 2.35532C21.7741 2.29459 22.4245 2.22729 22.6164 2.20575C23.536 2.10255 29.2061 2.23965 30.2921 2.39142ZM6.62318 10.9495C7.22686 11.2555 7.90272 11.9645 8.19609 12.5995C8.39077 13.0208 8.4146 13.2646 8.4436 15.1291L8.4757 17.1925L8.09471 17.3874C7.55403 17.664 7.00686 18.2286 6.69585 18.8305C6.31247 19.5724 6.30529 20.7032 6.679 21.5001C7.01095 22.2081 7.54555 22.7429 8.25341 23.075L8.81024 23.3362L16.1868 23.3674C21.3142 23.3892 23.7191 23.365 24.074 23.2883C24.3548 23.2277 24.7922 23.0463 25.0459 22.8854L25.5073 22.5927L25.9686 22.8854C26.2223 23.0463 26.6597 23.2277 26.9405 23.2883C27.2954 23.365 29.7004 23.3892 34.8277 23.3674L42.2043 23.3362L42.7611 23.075C43.469 22.7429 44.0036 22.2081 44.3355 21.5001C44.7092 20.7032 44.7021 19.5724 44.3187 18.8305C44.0091 18.2313 43.4609 17.6643 42.927 17.3911L42.5532 17.1997V15.2113C42.5532 13.4226 42.5746 13.1653 42.7668 12.6516C43.0235 11.9653 43.6792 11.2708 44.3973 10.9244C45.1256 10.5732 46.278 10.5783 47.0389 10.936C48.5373 11.6403 49.2396 13.3062 48.7004 14.8776C48.5038 15.4504 47.9146 16.1802 47.3837 16.5084C47.1927 16.6265 46.9809 16.82 46.913 16.9385C46.8221 17.0973 46.7767 18.3508 46.7399 21.7075L46.6901 26.2609L46.3866 26.6932C46.2196 26.9309 45.8832 27.2375 45.639 27.3746L45.1948 27.6239H25.5073H5.81973L5.37554 27.3746C5.13131 27.2375 4.79488 26.9309 4.62791 26.6932L4.32447 26.2609L4.27463 21.7075C4.23785 18.3508 4.19239 17.0973 4.10148 16.9385C4.0336 16.82 3.82486 16.6284 3.63755 16.5126C1.64667 15.2818 1.66511 12.3387 3.67165 11.0943C4.52265 10.5664 5.74875 10.5063 6.62318 10.9495ZM23.6337 19.2021C24.1205 19.3373 24.4107 19.7162 24.4107 20.2164C24.4107 20.7471 24.0137 21.151 23.4052 21.2388C23.1633 21.2737 19.8598 21.2888 16.0641 21.2722L9.16292 21.2422L8.84832 20.9275C8.42177 20.5009 8.40632 19.9189 8.81034 19.4971C8.96246 19.3383 9.18166 19.1897 9.2975 19.167C9.78694 19.0707 23.2796 19.1038 23.6337 19.2021ZM42.1662 19.4629C42.6111 19.908 42.6111 20.4825 42.1662 20.9275L41.8516 21.2422L34.9504 21.2722C31.1547 21.2888 27.8512 21.2737 27.6093 21.2388C27.0008 21.151 26.6038 20.7471 26.6038 20.2164C26.6038 19.7353 26.8918 19.3364 27.3328 19.207C27.5193 19.1522 30.582 19.1209 34.751 19.131L41.8516 19.1482L42.1662 19.4629ZM10.6538 30.2414C10.6526 31.2985 10.2717 31.8617 9.55787 31.8617C8.84403 31.8617 8.46314 31.2985 8.46195 30.2414L8.46135 29.7677H9.55787H10.6544L10.6538 30.2414ZM42.5526 30.2414C42.5514 31.2985 42.1705 31.8617 41.4567 31.8617C40.7428 31.8617 40.3619 31.2985 40.3607 30.2414L40.3601 29.7677H41.4567H42.5532L42.5526 30.2414Z" fill="white"/>
</svg>
