<svg width="92" height="92" viewBox="0 0 92 92" fill="none" xmlns="http://www.w3.org/2000/svg">
<circle cx="46" cy="46" r="46" fill="#FFF1F1"/>
<path fill-rule="evenodd" clip-rule="evenodd" d="M38.4136 24.1015C38.1034 24.2711 38.0179 24.4616 38.0179 24.9836V25.4941H35.3419C33.7822 25.4941 32.5701 25.5305 32.4362 25.5815C32.0626 25.7234 31.9512 26.1363 31.9512 27.3775V28.4753L29.1838 28.5009C26.4374 28.5262 26.4151 28.5279 26.2164 28.7266L26.0163 28.9268V45.3528V61.7788L26.2294 62.0056C26.5136 62.308 26.955 62.3128 27.2512 62.0167L27.467 61.801V45.8887V29.9766H30.2248C33.7239 29.9766 33.4316 30.1255 33.4656 28.324L33.4898 27.0322L36.2791 26.9883C39.0112 26.9452 39.0724 26.9404 39.2626 26.75C39.4077 26.6049 39.4667 26.4211 39.4954 26.0249L39.5337 25.4941H41.0179H42.502V26.0095C42.502 26.4492 42.5361 26.5589 42.7338 26.7566L42.9657 26.9883H45.7232H48.4809V27.7354V28.4824H42.1121C37.9185 28.4824 35.6613 28.5136 35.503 28.5737C34.9916 28.7682 34.8592 29.3758 35.2443 29.7608L35.4601 29.9766H44.9599H54.4597V31.4735C54.4597 32.5831 54.4928 33.0495 54.5874 33.2758C54.7978 33.7793 55.3858 33.8848 55.7808 33.49C55.9442 33.3266 55.9544 33.1899 55.9544 31.1573C55.9544 29.9171 55.9177 28.9298 55.8683 28.8374C55.7013 28.5254 55.3054 28.4824 52.6002 28.4824H49.9756L49.9728 27.23C49.9709 26.3843 49.9352 25.9323 49.8629 25.8381C49.6148 25.5151 49.4205 25.4941 46.6842 25.4941H43.9967V25.004C43.9967 24.5794 43.9624 24.4794 43.7397 24.2569L43.4827 24L41.0361 24.0026C39.4357 24.0044 38.5286 24.0386 38.4136 24.1015ZM66.813 24.1673C66.6679 24.259 56.7688 34.1168 44.8149 46.0737C28.9812 61.9114 23.0636 67.8834 23.0182 68.0711C22.8964 68.5746 23.4085 69.0865 23.9122 68.9648C24.1 68.9193 30.0835 62.9939 45.9587 47.1324C57.9425 35.1589 67.8044 25.2555 67.8737 25.125C68.0625 24.77 68.0282 24.542 67.743 24.2569C67.4448 23.9589 67.1829 23.9336 66.813 24.1673ZM29.4288 31.5989C29.2221 31.6892 29.1231 31.8093 29.0512 32.0574C28.9814 32.2984 28.9612 36.1336 28.9798 45.6068L29.0057 58.8199L29.2524 59.0321C29.5483 59.2864 29.8936 59.301 30.1927 59.0717C30.3974 58.9148 30.4155 58.8377 30.4564 57.9531L30.5004 57.0029L31.0276 56.9759C31.6844 56.9423 31.9512 56.7342 31.9512 56.2559C31.9512 55.7798 31.6636 55.5498 30.9923 55.489L30.4564 55.4404V53.2114V50.9824H31.9512H33.4459L33.4464 52.4106C33.4469 54.1312 33.5166 54.4509 33.9346 54.6501C34.2151 54.7838 34.2592 54.7838 34.5397 54.6501C34.9577 54.4509 35.0274 54.1312 35.028 52.4106L35.0285 50.9824H36.659C38.2731 50.9824 38.2919 50.9802 38.5054 50.7667C38.6241 50.648 38.7213 50.4903 38.7213 50.4163C38.7213 50.3422 38.8544 50.226 39.0172 50.1581C39.4745 49.967 39.5126 49.7424 39.5126 47.234V45.0059H41.0073C42.2969 45.0059 42.502 45.0245 42.502 45.1417C42.502 45.3791 42.912 45.709 43.2072 45.709C43.5801 45.709 43.7768 45.588 43.9043 45.2804C43.9647 45.1345 44.1255 44.9739 44.2714 44.9135C44.5792 44.786 44.7001 44.5893 44.7001 44.2166C44.7001 43.9216 44.3702 43.5117 44.1326 43.5117C44.0136 43.5117 43.9967 43.2334 43.9967 41.2705V39.0293H45.4915H46.9862V39.8261C46.9862 40.8865 47.1697 41.218 47.7597 41.2238C47.9626 41.2257 48.1143 41.1568 48.2653 40.994C48.4638 40.7798 48.4809 40.6929 48.4809 39.8954V39.0293H49.2151C50.157 39.0293 50.4858 38.9164 50.6436 38.539C50.7787 38.2157 50.739 38.0265 50.4747 37.7329C50.3119 37.5521 50.2189 37.5352 49.3888 37.5352H48.4809V35.25V32.9648H49.9702H51.4596L51.4869 34.6426L51.5142 36.3202L51.761 36.5322C52.0776 36.8043 52.4362 36.8029 52.7323 36.5286L52.965 36.313V34.1269V31.9408L52.7381 31.7277L52.5112 31.5146L41.1102 31.4956C31.5302 31.4796 29.6643 31.4961 29.4288 31.5989ZM33.4459 35.2521V37.5394L31.9731 37.5153L30.5004 37.4912L30.4768 35.3396C30.4638 34.1561 30.4725 33.1377 30.496 33.0764C30.5283 32.9925 30.8991 32.9648 31.9924 32.9648H33.4459V35.2521ZM37.9739 35.25V37.4912L36.5012 37.5153L35.0285 37.5394V35.25V32.9606L36.5012 32.9847L37.9739 33.0088V35.25ZM42.502 35.25V37.5352H41.0073H39.5126V35.25V32.9648H41.0073H42.502V35.25ZM46.9862 35.25V37.5352H45.4915H43.9967V35.25V32.9648H45.4915H46.9862V35.25ZM33.4459 41.2705V43.5117H31.9512H30.4564V41.2705V39.0293H31.9512H33.4459V41.2705ZM38.0179 41.2705V43.5117H36.5232H35.0285V41.2705V39.0293H36.5232H38.0179V41.2705ZM42.502 41.2705V43.5117H41.0073H39.5126V41.2705V39.0293H41.0073H42.502V41.2705ZM57.7687 39.2115C57.5414 39.3902 57.537 39.4136 57.537 40.4477C57.537 41.0275 57.5763 41.5751 57.6243 41.6648C57.6723 41.7543 57.8479 41.8727 58.0146 41.9277C58.6065 42.123 59.0317 41.6774 59.0317 40.8619V40.5234H59.7791H60.5265L60.5293 41.0288C60.5323 41.5855 60.6392 41.7887 61.001 41.9263C61.1478 41.9821 62.2651 42.0176 63.8733 42.0176H66.5053V47.0918V52.1659L60.6775 46.3447C55.0302 40.7037 54.8394 40.5234 54.5186 40.5234C54.1025 40.5234 53.7563 40.858 53.7563 41.2601C53.7563 41.5026 54.4622 42.2375 60.3457 48.1204C66.6892 54.4632 66.9472 54.709 67.2592 54.709C67.5038 54.709 67.6342 54.6497 67.7916 54.4668L68 54.2245V47.6758C68 42.8656 67.9728 41.0762 67.8977 40.9351C67.6833 40.5328 67.656 40.5292 64.7793 40.5262L62.0423 40.5234L62.0042 39.9973C61.9754 39.5994 61.9156 39.4173 61.7585 39.2503L61.5509 39.0293H59.7757C58.1128 39.0293 57.9857 39.0408 57.7687 39.2115ZM33.4459 47.2471V49.4883H31.9512H30.4564V47.2471V45.0059H31.9512H33.4459V47.2471ZM38.0179 47.2471V49.4883H36.5232H35.0285V47.2471V45.0059H36.5232H38.0179V47.2471ZM41.5586 54.0299C41.4507 54.0522 41.2826 54.1719 41.1849 54.2961C41.014 54.5133 41.0073 54.6442 41.0073 57.7569V60.9921L41.2195 61.2387L41.4317 61.4854H43.9967H46.5618L46.774 61.2387L46.9862 60.9921V57.75V54.5079L46.7741 54.2613L46.562 54.0146L44.1583 54.0021C42.8363 53.9952 41.6664 54.0078 41.5586 54.0299ZM48.9575 54.0933C48.8085 54.1593 48.6395 54.3274 48.5815 54.4673C48.5033 54.6562 48.4825 55.9188 48.5006 59.3973L48.5248 64.0734L48.7207 64.2691C48.9883 64.5366 49.4607 64.5309 49.7525 64.257L49.9739 64.049L49.9968 59.779L50.0195 55.5088L51.4923 55.4847L52.965 55.4606V57.0008V58.541L52.4594 58.5438C51.9061 58.5469 51.6992 58.6539 51.5651 59.0063C51.3518 59.5671 51.8273 60.0352 52.6105 60.0352H52.965V61.8678C52.965 62.9823 53.0032 63.8098 53.0624 63.9798C53.1947 64.3592 53.59 64.562 53.9515 64.4361C54.4734 64.2543 54.4539 64.4554 54.4569 59.2375L54.4597 54.4408L54.2329 54.2277L54.0062 54.0146L51.6172 53.994C49.7543 53.9779 49.1686 53.9998 48.9575 54.0933ZM56.4732 54.0684C56.0131 54.2373 55.9984 54.351 55.9984 57.75C55.9984 61.187 56.0089 61.2634 56.5077 61.4372C56.8776 61.5661 61.1168 61.5595 61.4899 61.4295C61.9986 61.2523 62.0212 61.0959 62.0212 57.75C62.0212 54.4041 61.9986 54.2477 61.4899 54.0705C61.1363 53.9472 56.8084 53.9455 56.4732 54.0684ZM64.0672 54.039C63.9593 54.0562 63.7912 54.1719 63.6935 54.2961C63.519 54.5179 63.5159 54.6335 63.5159 61.0138V67.5059H60.7423H57.9687L57.7529 67.7216C57.5405 67.9339 57.4743 68.2948 57.5916 68.6005C57.7346 68.9728 57.9874 69 61.3085 69H64.4732L64.7199 68.7879L64.9666 68.5758L64.9902 61.6235C65.0105 55.6099 64.9961 54.637 64.8829 54.4183C64.7444 54.1506 64.3926 53.987 64.0672 54.039ZM45.4915 57.75V60.0352H43.9967H42.502V57.75V55.4648H43.9967H45.4915V57.75ZM60.4825 57.75V59.9912L59.0098 60.0153L57.537 60.0394V57.75V55.4606L59.0098 55.4847L60.4825 55.5088V57.75ZM38.2506 56.4714L38.0179 56.687V62.5726C38.0179 65.8097 38.0425 68.5223 38.0725 68.6005C38.2215 68.9886 38.3699 69 43.2508 69C46.5993 69 47.93 68.9718 48.069 68.8978C48.3886 68.7275 48.4752 68.5402 48.4781 68.0112L48.4809 67.5059H51.4703H54.4597V67.8602C54.4597 68.8404 55.1907 69.324 55.7808 68.7341C55.9344 68.5805 55.9544 68.4388 55.9544 67.5019C55.9544 66.495 55.9439 66.4326 55.7386 66.2275L55.5228 66.0117H51.5115H47.5002L47.2432 66.2686C47.0205 66.4912 46.9862 66.5911 46.9862 67.0157V67.5059H43.2513H39.5166L39.4926 62.0929L39.4687 56.68L39.2219 56.4679C38.9053 56.1957 38.5467 56.1971 38.2506 56.4714Z" fill="black"/>
</svg>
