<svg width="45" height="45" viewBox="0 0 45 45" fill="none" xmlns="http://www.w3.org/2000/svg">
<path fill-rule="evenodd" clip-rule="evenodd" d="M15.4136 0.101514C15.1034 0.271055 15.0179 0.461602 15.0179 0.983584V1.49414H12.3419C10.7822 1.49414 9.57014 1.53053 9.43623 1.5815C9.06264 1.72345 8.95115 2.13627 8.95115 3.37746V4.4753L6.18383 4.50088C3.43744 4.52619 3.41511 4.52786 3.2164 4.72658L3.01628 4.9268V21.3528V37.7788L3.22941 38.0056C3.51358 38.308 3.95505 38.3128 4.25118 38.0167L4.46703 37.801V21.8887V5.97656H7.22477C10.7239 5.97656 10.4316 6.12554 10.4656 4.32404L10.4898 3.03223L13.2791 2.98828C16.0112 2.94521 16.0724 2.94038 16.2626 2.75001C16.4077 2.6049 16.4667 2.42112 16.4954 2.02491L16.5337 1.49414H18.0179H19.502V2.00953C19.502 2.44916 19.5361 2.55894 19.7338 2.7566L19.9657 2.98828H22.7232H25.4809V3.73535V4.48242H19.1121C14.9185 4.48242 12.6613 4.51362 12.503 4.57374C11.9916 4.76815 11.8592 5.37583 12.2443 5.76079L12.4601 5.97656H21.9599H31.4597V7.47352C31.4597 8.58313 31.4928 9.04948 31.5874 9.2758C31.7978 9.77933 32.3858 9.8848 32.7808 9.48999C32.9442 9.3266 32.9544 9.18993 32.9544 7.15729C32.9544 5.91706 32.9177 4.92979 32.8683 4.83741C32.7013 4.5254 32.3054 4.48242 29.6002 4.48242H26.9756L26.9728 3.22998C26.9709 2.3843 26.9352 1.93228 26.8629 1.83806C26.6148 1.51515 26.4205 1.49414 23.6842 1.49414H20.9967V1.00397C20.9967 0.579375 20.9624 0.479443 20.7397 0.256904L20.4827 0L18.0361 0.00263672C16.4357 0.00439453 15.5286 0.038584 15.4136 0.101514ZM43.813 0.167344C43.6679 0.259014 33.7688 10.1168 21.8149 22.0737C5.98117 37.9114 0.0636187 43.8834 0.018162 44.0711C-0.103613 44.5746 0.408457 45.0865 0.912173 44.9648C1.09998 44.9193 7.08347 38.9939 22.9587 23.1324C34.9425 11.1589 44.8044 1.25552 44.8737 1.125C45.0625 0.77001 45.0282 0.542022 44.743 0.256904C44.4448 -0.0411328 44.1829 -0.0663574 43.813 0.167344ZM6.42879 7.59894C6.22208 7.6892 6.12308 7.80935 6.05124 8.05737C5.98143 8.29837 5.96121 12.1336 5.97976 21.6068L6.0057 34.8199L6.25241 35.0321C6.54828 35.2864 6.89356 35.301 7.19267 35.0717C7.39736 34.9148 7.41547 34.8377 7.45645 33.9531L7.50041 33.0029L8.0276 32.9759C8.68439 32.9423 8.95115 32.7342 8.95115 32.2559C8.95115 31.7798 8.66355 31.5498 7.99225 31.489L7.45645 31.4404V29.2114V26.9824H8.95115H10.4459L10.4464 28.4106C10.4469 30.1312 10.5166 30.4509 10.9346 30.6501C11.2151 30.7838 11.2592 30.7838 11.5397 30.6501C11.9577 30.4509 12.0274 30.1312 12.028 28.4106L12.0285 26.9824H13.659C15.2731 26.9824 15.2919 26.9802 15.5054 26.7667C15.6241 26.648 15.7213 26.4903 15.7213 26.4163C15.7213 26.3422 15.8544 26.226 16.0172 26.1581C16.4745 25.967 16.5126 25.7424 16.5126 23.234V21.0059H18.0073C19.2969 21.0059 19.502 21.0245 19.502 21.1417C19.502 21.3791 19.912 21.709 20.2072 21.709C20.5801 21.709 20.7768 21.588 20.9043 21.2804C20.9647 21.1345 21.1255 20.9739 21.2714 20.9135C21.5792 20.786 21.7001 20.5893 21.7001 20.2166C21.7001 19.9216 21.3702 19.5117 21.1326 19.5117C21.0136 19.5117 20.9967 19.2334 20.9967 17.2705V15.0293H22.4915H23.9862V15.8261C23.9862 16.8865 24.1697 17.218 24.7597 17.2238C24.9626 17.2257 25.1143 17.1568 25.2653 16.994C25.4638 16.7798 25.4809 16.6929 25.4809 15.8954V15.0293H26.2151C27.157 15.0293 27.4858 14.9164 27.6436 14.539C27.7787 14.2157 27.739 14.0265 27.4747 13.7329C27.3119 13.5521 27.2189 13.5352 26.3888 13.5352H25.4809V11.25V8.96484H26.9702H28.4596L28.4869 10.6426L28.5142 12.3202L28.761 12.5322C29.0776 12.8043 29.4362 12.8029 29.7323 12.5286L29.965 12.313V10.1269V7.94083L29.7381 7.7277L29.5112 7.51465L18.1102 7.49558C8.53017 7.47958 6.66434 7.4961 6.42879 7.59894ZM10.4459 11.2521V13.5394L8.97313 13.5153L7.50041 13.4912L7.47684 11.3396C7.46383 10.1561 7.47254 9.13772 7.49601 9.07638C7.52828 8.99253 7.89914 8.96484 8.99239 8.96484H10.4459V11.2521ZM14.9739 11.25V13.4912L13.5012 13.5153L12.0285 13.5394V11.25V8.96063L13.5012 8.98471L14.9739 9.00879V11.25ZM19.502 11.25V13.5352H18.0073H16.5126V11.25V8.96484H18.0073H19.502V11.25ZM23.9862 11.25V13.5352H22.4915H20.9967V11.25V8.96484H22.4915H23.9862V11.25ZM10.4459 17.2705V19.5117H8.95115H7.45645V17.2705V15.0293H8.95115H10.4459V17.2705ZM15.0179 17.2705V19.5117H13.5232H12.0285V17.2705V15.0293H13.5232H15.0179V17.2705ZM19.502 17.2705V19.5117H18.0073H16.5126V17.2705V15.0293H18.0073H19.502V17.2705ZM34.7687 15.2115C34.5414 15.3902 34.537 15.4136 34.537 16.4477C34.537 17.0275 34.5763 17.5751 34.6243 17.6648C34.6723 17.7543 34.8479 17.8727 35.0146 17.9277C35.6065 18.123 36.0317 17.6774 36.0317 16.8619V16.5234H36.7791H37.5265L37.5293 17.0288C37.5323 17.5855 37.6392 17.7887 38.001 17.9263C38.1478 17.9821 39.2651 18.0176 40.8733 18.0176H43.5053V23.0918V28.1659L37.6775 22.3447C32.0302 16.7037 31.8394 16.5234 31.5186 16.5234C31.1025 16.5234 30.7563 16.858 30.7563 17.2601C30.7563 17.5026 31.4622 18.2375 37.3457 24.1204C43.6892 30.4632 43.9472 30.709 44.2592 30.709C44.5038 30.709 44.6342 30.6497 44.7916 30.4668L45 30.2245V23.6758C45 18.8656 44.9728 17.0762 44.8977 16.9351C44.6833 16.5328 44.656 16.5292 41.7793 16.5262L39.0423 16.5234L39.0042 15.9973C38.9754 15.5994 38.9156 15.4173 38.7585 15.2503L38.5509 15.0293H36.7757C35.1128 15.0293 34.9857 15.0408 34.7687 15.2115ZM10.4459 23.2471V25.4883H8.95115H7.45645V23.2471V21.0059H8.95115H10.4459V23.2471ZM15.0179 23.2471V25.4883H13.5232H12.0285V23.2471V21.0059H13.5232H15.0179V23.2471ZM18.5586 30.0299C18.4507 30.0522 18.2826 30.1719 18.1849 30.2961C18.014 30.5133 18.0073 30.6442 18.0073 33.7569V36.9921L18.2195 37.2387L18.4317 37.4854H20.9967H23.5618L23.774 37.2387L23.9862 36.9921V33.75V30.5079L23.7741 30.2613L23.562 30.0146L21.1583 30.0021C19.8363 29.9952 18.6664 30.0078 18.5586 30.0299ZM25.9575 30.0933C25.8085 30.1593 25.6395 30.3274 25.5815 30.4673C25.5033 30.6562 25.4825 31.9188 25.5006 35.3973L25.5248 40.0734L25.7207 40.2691C25.9883 40.5366 26.4607 40.5309 26.7525 40.257L26.9739 40.049L26.9968 35.779L27.0195 31.5088L28.4923 31.4847L29.965 31.4606V33.0008V34.541L29.4594 34.5438C28.9061 34.5469 28.6992 34.6539 28.5651 35.0063C28.3518 35.5671 28.8273 36.0352 29.6105 36.0352H29.965V37.8678C29.965 38.9823 30.0032 39.8098 30.0624 39.9798C30.1947 40.3592 30.59 40.562 30.9515 40.4361C31.4734 40.2543 31.4539 40.4554 31.4569 35.2375L31.4597 30.4408L31.2329 30.2277L31.0062 30.0146L28.6172 29.994C26.7543 29.9779 26.1686 29.9998 25.9575 30.0933ZM33.4732 30.0684C33.0131 30.2373 32.9984 30.351 32.9984 33.75C32.9984 37.187 33.0089 37.2634 33.5077 37.4372C33.8776 37.5661 38.1168 37.5595 38.4899 37.4295C38.9986 37.2523 39.0212 37.0959 39.0212 33.75C39.0212 30.4041 38.9986 30.2477 38.4899 30.0705C38.1363 29.9472 33.8084 29.9455 33.4732 30.0684ZM41.0672 30.039C40.9593 30.0562 40.7912 30.1719 40.6935 30.2961C40.519 30.5179 40.5159 30.6335 40.5159 37.0138V43.5059H37.7423H34.9687L34.7529 43.7216C34.5405 43.9339 34.4743 44.2948 34.5916 44.6005C34.7346 44.9728 34.9874 45 38.3085 45H41.4732L41.7199 44.7879L41.9666 44.5758L41.9902 37.6235C42.0105 31.6099 41.9961 30.637 41.8829 30.4183C41.7444 30.1506 41.3926 29.987 41.0672 30.039ZM22.4915 33.75V36.0352H20.9967H19.502V33.75V31.4648H20.9967H22.4915V33.75ZM37.4825 33.75V35.9912L36.0098 36.0153L34.537 36.0394V33.75V31.4606L36.0098 31.4847L37.4825 31.5088V33.75ZM15.2506 32.4714L15.0179 32.687V38.5726C15.0179 41.8097 15.0425 44.5223 15.0725 44.6005C15.2215 44.9886 15.3699 45 20.2508 45C23.5993 45 24.93 44.9718 25.069 44.8978C25.3886 44.7275 25.4752 44.5402 25.4781 44.0112L25.4809 43.5059H28.4703H31.4597V43.8602C31.4597 44.8404 32.1907 45.324 32.7808 44.7341C32.9344 44.5805 32.9544 44.4388 32.9544 43.5019C32.9544 42.495 32.9439 42.4326 32.7386 42.2275L32.5228 42.0117H28.5115H24.5002L24.2432 42.2686C24.0205 42.4912 23.9862 42.5911 23.9862 43.0157V43.5059H20.2513H16.5166L16.4926 38.0929L16.4687 32.68L16.2219 32.4679C15.9053 32.1957 15.5467 32.1971 15.2506 32.4714Z" fill="white"/>
</svg>
