<svg width="10" height="14" viewBox="0 0 10 14" fill="none" xmlns="http://www.w3.org/2000/svg">
<path fill-rule="evenodd" clip-rule="evenodd" d="M4.63774 0.00614855C3.9092 0.0867473 3.45691 0.205189 2.87581 0.467485C2.08448 0.824677 1.2873 1.52037 0.789245 2.28841C0.0808431 3.38076 -0.161133 4.69026 0.10577 5.98678C0.232739 6.6035 0.485593 7.16247 0.980979 7.92154C2.67325 10.5145 4.97748 14 4.9994 14C5.02132 14 7.32555 10.5145 9.01782 7.92154C9.63192 6.98059 9.87509 6.35377 9.98136 5.43793C10.0185 5.11817 9.99836 4.54136 9.9371 4.16844C9.8056 3.36797 9.46016 2.58018 8.95348 1.92529C8.88343 1.83473 8.70766 1.6398 8.56291 1.49213C7.81131 0.72539 6.85501 0.232549 5.77835 0.0570544C5.54055 0.0182781 4.8191 -0.0139119 4.63774 0.00614855ZM5.59753 2.53819C5.89436 2.61802 6.06565 2.69019 6.29967 2.8341C6.84065 3.1667 7.25224 3.71819 7.42372 4.34023C7.51055 4.65519 7.51047 5.26082 7.42353 5.57514C7.23338 6.26269 6.73719 6.8591 6.09828 7.16799C5.70263 7.35929 5.47659 7.40883 4.9994 7.40883C4.52221 7.40883 4.29617 7.35929 3.90052 7.16799C3.26161 6.8591 2.76542 6.26269 2.57527 5.57514C2.48834 5.26082 2.48825 4.65519 2.57508 4.34023C2.82362 3.43869 3.5437 2.7372 4.4291 2.53415C4.73264 2.46453 4.74388 2.46352 5.08286 2.47499C5.27818 2.4816 5.47865 2.50622 5.59753 2.53819Z" fill="#747474"/>
</svg>
