<svg width="16" height="14" viewBox="0 0 16 14" fill="none" xmlns="http://www.w3.org/2000/svg">
<path fill-rule="evenodd" clip-rule="evenodd" d="M15.2782 0.172062C14.4125 0.622352 13.0402 1.47643 12.1429 2.12327C10.347 3.41798 8.74599 4.95132 7.61917 6.45585C7.17186 7.05311 6.8026 7.62591 6.50149 8.18963L6.2762 8.61139L6.1308 8.4463C6.05082 8.35553 5.52746 7.757 4.96778 7.11628C4.4081 6.47556 3.90198 5.92519 3.84307 5.89327C3.74706 5.84125 3.55168 5.83636 1.95652 5.84606L0.177086 5.85689L0.0909292 5.95619C-0.0487848 6.11721 -0.027933 6.29125 0.15652 6.50334C0.239998 6.59931 1.83237 8.31133 3.69518 10.3078C5.67453 12.4293 7.12412 13.9551 7.18325 13.9794C7.32285 14.0367 7.52355 13.9691 7.58811 13.843C7.61471 13.7911 7.70368 13.5018 7.78584 13.2001C8.75052 9.6576 10.7159 6.09088 13.3481 3.10567C13.8999 2.47982 14.906 1.47491 15.4709 0.985302C15.7392 0.752761 15.9682 0.538161 15.9797 0.508399C16.0125 0.423571 16.0043 0.249811 15.9639 0.174999C15.9238 0.100682 15.7511 0 15.6637 0C15.6336 0 15.4601 0.0774312 15.2782 0.172062Z" fill="#0D6EFD"/>
</svg>
