<svg width="42" height="37" viewBox="0 0 42 37" fill="none" xmlns="http://www.w3.org/2000/svg">
<path fill-rule="evenodd" clip-rule="evenodd" d="M35.9773 0.0325858C35.7285 0.139667 35.3486 0.142392 35.1051 0.296496C34.8943 0.429869 34.6309 0.638729 34.387 0.71753C34.2461 0.838862 34.1048 0.963839 33.9471 1.09084C33.5918 1.37692 33.1225 1.96193 32.7556 2.24366C32.6228 2.20772 32.4464 2.10712 32.3676 2.00678C32.0989 1.96977 31.5478 1.54428 31.3935 1.50978C31.28 1.48445 30.8812 1.52344 30.6907 1.50411C30.4686 1.48157 30.2525 1.45812 30.0306 1.43426L30.1672 1.09847C30.1219 0.929485 30.1946 1.04747 30.0038 0.976399C29.9651 0.962002 29.9551 0.967227 29.8942 0.943072C29.7616 0.890415 29.8445 0.926833 29.7908 0.885812C29.6653 0.91424 29.3816 0.86847 29.1313 0.902199L27.2255 1.17403C26.9671 1.21324 26.7363 1.19354 26.506 1.22602C26.2927 1.25607 26.1304 1.34146 25.9058 1.35553C25.4604 1.38344 24.911 1.35726 24.4541 1.35726C24.1823 1.8181 24.483 1.88482 24.3011 2.16118L24.0391 2.08337L23.8186 2.48555C23.6882 2.93689 23.6315 2.69615 23.8533 3.00811C24.0992 2.90828 24.287 2.75952 24.1766 3.15813C24.1064 3.41143 24.1932 3.47337 24.2872 3.69408C24.3493 3.8399 24.5271 4.13125 24.4901 4.24455C24.4457 4.38072 24.0856 4.4149 24.0645 4.16188C23.966 4.10606 23.9565 4.0752 23.8189 4.12499C23.6918 4.17665 23.6223 4.17945 23.5282 4.30038L23.5526 4.75264C23.6773 4.90523 23.7282 4.97674 23.6854 5.19849C23.5299 5.14525 23.4454 5.04229 23.2917 4.96444C23.0789 4.85666 23.0054 4.90965 22.8847 4.77455C22.6596 4.77573 22.4628 4.65903 22.2336 4.58631C22.0811 4.63525 22.038 4.66194 21.8957 4.73986C21.8302 4.77569 21.7844 4.80176 21.7248 4.8388C21.6356 4.89418 21.6759 4.87942 21.5679 4.93322C21.5388 5.02318 21.439 5.11645 21.347 5.18903C21.2318 5.27994 21.1659 5.28528 21.0038 5.29695C20.6135 5.1944 20.3634 5.0438 20.2227 4.70882C20.1509 4.70414 20.2074 4.70797 20.1337 4.66897C20.1057 4.65413 20.1499 4.66102 20.0382 4.61337C19.9541 4.86951 19.699 5.43317 19.701 5.69579C19.7028 5.9277 19.7644 6.11222 19.6823 6.33743C19.6288 6.48439 19.5215 6.71726 19.3982 6.79749C18.8772 6.23962 18.7765 6.82345 18.3263 6.1627C18.2022 5.9805 18.1079 5.82677 17.9817 5.64527C17.8796 5.49834 17.6884 5.27508 17.6659 5.11468C17.6028 5.06515 17.6014 5.0758 17.5338 4.98083L17.9351 4.38658L17.9872 4.18634C17.8386 4.0597 17.608 3.91462 17.5148 3.75031C17.4257 3.68392 17.3278 3.65568 17.4871 3.32442L17.5672 3.19576C17.4319 2.79174 17.545 2.71886 17.2578 2.37623C17.0905 2.17668 16.9699 1.98465 16.5641 1.9613C15.8138 1.91815 15.2617 2.00155 14.6954 1.63446C14.4291 1.48485 14.3923 1.51593 14.2272 1.69588C14.0816 1.85452 14.0379 1.84616 13.933 2.07523C13.7635 2.49907 14.1891 2.58774 13.9436 3.25843C13.713 3.17849 13.6501 3.02785 13.4721 2.93038C12.8578 3.34979 13.0132 3.21145 12.3287 2.99327C11.3604 2.68462 11.2888 2.97254 11.1057 2.62147C11.1883 2.40281 11.3274 2.35067 11.3139 2.22319L10.7574 1.963C10.7517 1.94683 10.7355 1.94941 10.7248 1.94212C10.4413 1.95158 10.1714 1.79873 9.75213 1.80256C9.49316 1.80492 8.87504 1.8554 8.70124 1.83364C8.48361 1.98325 8.84739 1.80676 8.57206 1.88666C8.51282 1.90382 8.5074 1.88578 8.42264 1.92721C8.30937 1.98263 8.39686 1.95906 8.23778 2.08138L8.26036 2.12237C8.24979 2.27817 8.27479 2.23773 8.18704 2.34305L8.16576 2.15205L8.12201 1.21162L7.97973 1.23434C7.94924 1.28174 7.97663 1.32463 7.75868 1.33564C7.61584 1.34282 7.17625 1.3391 7.14027 1.23121C6.83225 1.16784 6.90626 1.262 6.5739 1.71278C6.16763 2.26388 6.3573 2.27327 6.33709 2.46976C6.36946 2.51899 6.34821 2.44987 6.38868 2.58133C6.39582 2.60453 6.39486 2.65523 6.39604 2.6865C6.43714 3.04607 6.36235 3.45293 6.46486 3.77653C6.53575 4.00031 6.52518 3.99257 6.67133 4.15721C6.7241 4.21672 6.93189 4.41445 6.93867 4.42638C7.05466 4.51498 6.99802 4.3506 7.03871 4.61823C7.04486 4.65863 7.0312 4.74439 7.02421 4.78585C6.99648 4.9503 6.97913 4.95944 6.97696 5.16211L6.98278 5.77787C6.98422 5.93779 7.03459 6.17776 6.98348 6.29755C6.96422 6.34269 6.80953 6.59084 6.76891 6.62594C6.7421 6.6491 6.05977 6.95116 5.98583 6.98374C5.9471 7.07418 5.65505 7.18436 5.35969 7.48587C5.17565 7.67374 4.92025 7.82637 4.76611 8.04653L4.68859 8.7314C4.47804 8.77935 4.47948 8.81337 4.27076 8.73822C4.05933 8.6621 4.13433 8.65986 3.90018 8.71112C3.73524 8.74381 3.58935 8.79993 3.43484 8.82851C3.27617 8.85785 3.09011 8.84545 2.94977 8.87822C2.65725 8.94656 2.55002 9.24774 2.30117 9.30761L2.31248 9.67393C2.46684 10.1697 2.49744 10.4926 2.44552 11.0411C2.43897 11.1515 2.44946 11.0665 2.43016 11.1443C2.42725 11.1561 2.41496 11.1876 2.41245 11.1822C2.41021 11.1772 2.39761 11.2027 2.38966 11.2125C2.47998 11.5166 2.35471 11.9746 2.26825 12.2423L2.22992 12.3749C2.13705 12.5923 1.96542 13.0241 1.82925 13.2131C1.62389 13.4981 1.28257 13.2757 1.16864 13.7766C1.06042 14.2524 1.26744 14.3414 1.14545 14.7961C1.05943 15.1167 1.03601 15.5365 0.937726 15.8094C0.944649 15.8208 0.950651 15.8362 0.954186 15.8458C1.0303 16.0531 1.02205 16.2012 1.04554 16.4345L1.15292 16.9139C0.935332 17.2254 0.706441 17.2507 0.534661 17.4523C0.288978 17.7407 0.295422 18.0399 0.0936313 18.0484L6.34123e-05 18.2751C-0.00509181 18.4675 0.305512 18.5817 0.409132 18.701L0.495702 18.7273C0.698523 18.8049 1.03166 19.0079 1.18322 19.1332C1.33519 19.1943 1.39857 19.2723 1.55448 19.3497C1.91818 19.5303 1.7848 19.3428 2.16364 19.8738C2.28795 20.0481 2.25209 20.0508 2.25209 20.3039C1.86405 20.3055 1.92955 20.3219 1.78812 20.5714C2.16758 20.9899 2.26052 21.2836 2.5547 21.8913C2.68527 22.161 2.46559 22.3851 2.48551 22.7191C2.50491 23.0447 2.68432 23.3001 2.6993 23.4952C2.77004 23.5502 2.74235 23.4035 2.78267 23.6291C2.7137 23.7311 2.79107 23.6378 2.73845 23.6899C2.65578 23.7718 2.72195 23.709 2.65279 23.7629C2.63858 23.906 2.61553 23.8927 2.53625 24.0373C2.48013 24.1397 2.46828 24.2035 2.39183 24.2645C2.32047 24.5169 2.31855 24.4195 2.36959 24.6771C2.53713 25.171 2.41256 25.3561 2.78076 25.6551C3.26038 26.0446 2.72729 26.5228 2.67986 26.5332C2.5537 26.8195 2.70593 26.5988 2.51854 26.7642C2.50587 26.8741 2.54829 26.7723 2.46592 26.92C2.41982 27.0027 2.39721 27.0172 2.36226 27.0323C2.26785 27.2519 2.11993 27.4713 1.99978 27.6357C1.85804 28.0481 1.59804 28.6531 1.36878 29.0302C1.34307 29.2741 1.50182 29.3768 1.59159 29.5301C1.70722 29.631 1.76901 29.6821 1.82763 29.809C1.89406 29.8532 1.86287 29.8248 1.91707 29.8741C1.9177 29.8746 1.96675 29.9294 1.97242 29.9357L2.31016 29.8437C2.43212 29.7125 2.85466 29.6149 3.07972 29.598C3.39684 29.5743 3.69036 29.6531 3.94922 29.5798C3.95803 29.5774 3.97183 29.5722 3.97946 29.5699C3.98682 29.5675 4.00269 29.5615 4.00847 29.5596C4.01414 29.5577 4.027 29.5514 4.03683 29.5493C4.07516 29.4809 4.07829 29.4537 4.13746 29.4014C4.21564 29.3322 4.18353 29.3509 4.29757 29.3417L4.35866 29.5273C4.38996 29.5492 4.39802 29.5457 4.4206 29.6341C4.49664 29.9322 4.28129 30.1859 4.39084 30.3056C4.58416 30.5168 5.32751 29.7658 5.43747 29.6601C5.61576 29.4888 6.18843 28.8422 6.35778 28.7853C6.38956 28.7241 6.35594 28.7403 6.43367 28.6584C6.55324 28.5323 6.44056 28.6394 6.55177 28.577C6.57574 28.4851 6.51531 28.568 6.62158 28.4395C6.66514 28.3868 6.68779 28.3765 6.74369 28.335C6.85287 28.2538 6.91904 28.2094 7.03117 28.1647C7.04358 28.1464 7.04862 28.1252 7.08581 28.0884C7.12978 28.045 7.1191 28.0591 7.16355 28.0276C7.2517 27.8645 7.41007 27.729 7.53498 27.5895L8.07447 27.703C8.37068 27.7532 8.6132 27.9102 8.7613 28.1128C8.8658 28.2558 9.11561 28.6322 9.16885 28.8091L9.1999 29.5321C9.348 29.5567 9.4827 29.5844 9.62822 29.6051C9.90189 29.6438 9.78833 29.6193 9.97399 29.7709L10.0574 29.6124C10.3768 29.5923 10.5141 29.6231 10.5697 29.9357C10.7212 30.1226 10.7258 30.4904 10.763 30.7832C10.7971 31.0522 10.9728 31.4798 10.9198 31.6899C10.9504 31.7395 10.9284 31.6617 10.9694 31.8015C10.9818 31.8439 10.9888 31.8824 10.9959 31.9261C11.0105 32.0158 11.0141 32.1108 11.0221 32.2028C11.0623 32.5986 11.1101 33.073 11.1375 33.4319C11.2417 33.48 11.2318 33.4821 11.3852 33.4679C11.4254 33.6941 11.4792 33.7301 11.5823 33.9165C11.7194 34.1646 11.617 34.1688 11.5994 34.473C11.7627 34.8342 11.7595 34.6495 12.0954 34.7569C12.1412 34.7299 12.0794 34.7464 12.2065 34.7097C12.2358 34.7012 12.2993 34.688 12.3303 34.6827C12.4171 34.6679 12.4974 34.6632 12.5843 34.6557C13.115 34.5825 13.0236 34.6271 13.456 34.8084C13.7556 34.934 13.9467 35.0421 14.2691 35.1487C14.3961 35.1764 14.4373 35.1935 14.5435 35.26C14.6646 35.3359 14.6596 35.3417 14.7403 35.4455C15.1505 35.4535 16.0358 35.5895 16.3308 35.8015C16.6966 35.9286 16.3972 36.2649 17.2673 36.4849C17.286 36.4896 17.3639 36.5132 17.3784 36.5191C17.4878 36.5627 17.4326 36.5395 17.4805 36.5718C17.781 36.5196 18.3302 36.7011 18.6005 36.7863C19.2129 36.9792 18.6178 37.1025 19.6473 36.8841C19.9089 36.8286 19.9552 36.8047 20.2055 36.8265C20.4593 36.8487 20.8978 36.5199 21.4226 36.7315C21.7652 36.8697 21.6196 36.8449 22.0483 36.8204C22.1507 36.5937 22.0061 36.6354 22.2311 36.5132C22.487 36.2255 23.1009 36.2469 23.5432 36.1973C23.8552 36.144 24.0378 36.1435 24.1225 35.8798L24.1204 35.7199C24.1344 35.4926 24.0808 35.0489 24.1653 34.8675C24.2243 34.7408 24.5142 34.4487 24.6629 34.3917C24.7041 34.1712 24.5525 33.982 24.5596 33.7405C24.4556 33.6202 24.4198 33.5924 24.3551 33.4299C23.9704 33.4214 24.445 32.4732 24.5319 32.2936C24.5708 32.0903 24.5388 32.0228 24.4912 31.8418C24.3689 31.8329 24.4926 31.9009 24.3694 31.7478C23.9876 31.2734 24.0742 31.4565 23.9208 31.2964C24.0966 31.1995 24.3431 31.4329 24.5022 31.1433L24.7697 29.8882C24.7945 29.8074 25.1605 28.8851 25.2798 28.837L27.2888 28.6907C27.3334 28.4809 27.3476 28.3256 27.3984 28.1193C27.4613 27.9898 27.5098 28.0082 27.6481 27.9798C27.8093 27.8985 28.039 27.8125 28.2317 27.8229C28.3418 27.7183 28.5475 27.7022 28.7172 27.6741C28.8769 27.5917 28.9128 27.5186 29.0826 27.5064C29.1331 27.4349 29.1317 27.4197 29.1825 27.3165C29.2103 27.2599 29.1896 27.2829 29.2294 27.2261C29.3119 27.1088 29.265 27.1753 29.329 27.1251C29.3595 26.9879 29.4448 26.8976 29.5795 26.8097C29.8058 26.8799 29.6617 26.9049 29.8517 26.9778C30.0021 26.6593 29.3795 24.5945 29.3998 24.3599C29.4108 24.2331 29.4645 24.0427 29.4965 23.9107C29.5589 23.6529 29.542 23.6843 29.7176 23.582L29.7592 23.5403C29.8428 23.3368 29.9506 23.3024 30.0345 23.0401C30.0938 22.8545 30.1611 22.6648 30.2261 22.4628C30.4125 21.8842 30.277 21.7444 30.209 21.1336C30.3651 21.0809 30.3428 21.1402 30.5198 21.0318C30.6369 20.9602 30.6526 20.9019 30.8004 20.9064C30.9768 20.9117 31.7258 21.3515 31.9487 21.3913C32.1413 21.4257 32.5217 21.4315 32.6852 21.4306L32.9661 21.2335C33.0202 21.1086 33.1463 20.9499 33.3311 20.9599C33.5042 20.9694 33.7134 21.0383 33.7994 21.1332L34.0714 21.1938L34.2899 20.8787C34.2931 20.8603 34.302 20.856 34.3097 20.8458C34.2878 20.6304 34.4091 20.4201 34.445 20.1858C34.5977 19.1903 34.4865 19.2602 34.2638 18.9006C34.1591 18.7317 34.0478 18.5637 34.0466 18.3524C33.9551 18.2587 33.9651 18.2276 33.9321 18.0954C33.8031 17.1268 33.9719 16.8836 34.1168 16.0002C34.2632 15.9904 34.4613 15.9875 34.6081 15.958C34.85 15.9093 34.8097 15.8704 34.9335 15.7272C35.3203 15.7529 35.2921 15.9728 35.5465 15.9411C35.6455 15.3873 35.2492 15.1446 35.3318 14.9053C35.4815 14.6764 35.407 14.8142 35.6391 14.7595C35.8949 14.6992 36.2552 14.3692 36.4717 14.3441C36.4804 14.3344 36.4916 14.3192 36.4963 14.3138C36.5007 14.3089 36.516 14.2913 36.5204 14.2864C36.6372 14.1567 36.9681 14.4532 37.0637 14.5762C37.1295 14.5831 37.1635 14.587 37.2475 14.5953C37.4294 14.2724 37.7195 13.8022 38.0155 13.5966C38.2311 13.4469 38.2238 13.6149 38.3805 13.5074C38.5726 13.3755 38.5178 12.8369 38.394 12.6378C38.2261 12.3676 37.9991 12.4616 38.1464 11.8518C38.1815 11.7033 38.2256 11.6366 38.2944 11.5194C38.3249 11.4676 38.3403 11.4318 38.376 11.3758L38.4626 11.2642C38.4664 11.2471 38.4797 11.2461 38.489 11.2379C38.3525 11.0872 38.2223 10.9391 38.2132 10.62C38.3836 10.4823 38.5268 10.3935 38.6418 10.2441C38.5613 10.0615 38.454 9.88028 38.4303 9.65739L38.5495 9.55654C38.5952 9.51864 38.5393 9.55735 38.6294 9.49449C38.6402 9.48701 38.6732 9.4647 38.6849 9.45759C38.7962 9.39013 38.7423 9.41922 38.8412 9.38181C38.9561 9.24417 39.1957 9.13764 39.3756 9.12736L39.6152 8.98044C39.7261 8.92947 39.7782 8.90547 39.8866 8.87575C40.1903 8.77614 40.3186 8.9287 40.6106 8.75129C40.646 8.7007 40.6577 8.67304 40.7045 8.61887C40.7708 8.5421 40.7474 8.56909 40.806 8.52221C40.8172 8.41561 40.7726 8.47578 40.8754 8.33615L41.2281 7.97546C41.1593 7.78104 41.2223 7.95753 41.1434 7.84493L41.0764 7.70765C41.0672 7.69918 41.0553 7.68788 41.0497 7.68147L40.8223 7.29659C40.7762 7.16293 40.7195 7.04447 40.67 6.91164C40.5647 6.6291 40.618 6.66795 40.5029 6.57954C40.4318 6.52493 39.9331 6.34199 39.8081 6.30175L39.6086 6.25513C39.341 6.17161 39.3578 6.22685 39.303 5.92597C39.1925 5.3199 39.1729 5.45065 39.1612 4.79657C39.153 4.33687 39.3128 4.42569 39.6333 4.00727C39.7864 3.80728 39.8 3.86115 39.9711 3.71187C40.1607 3.5465 40.4429 3.18464 40.6051 3.07517C40.7632 2.82337 40.9017 3.01279 41.0325 2.77568C41.1842 2.50073 41.0973 2.45934 41.0117 2.25648C40.8804 2.11511 40.8219 2.0629 40.7397 1.85036L40.5856 1.53025C40.4381 1.45642 40.4089 1.42718 40.3351 1.27971C40.2248 1.22742 40.2218 1.15738 40.1216 1.06304C39.9804 0.930073 39.9318 0.990392 39.9243 0.858418C39.7304 0.780611 39.727 0.792429 39.6458 0.579886C39.3394 0.554552 39.6419 0.580698 39.1191 0.953716C38.8911 1.11636 38.7673 1.20257 38.4343 1.26517C38.1712 1.31466 37.8791 1.43657 37.7363 1.09051C37.59 0.735905 37.8148 1.13433 37.5033 0.551277C37.4481 0.447804 37.4618 0.492063 37.4484 0.395919C37.433 0.384135 37.3662 0.339507 37.3303 0.312995C37.2934 0.285819 37.2908 0.328755 37.2722 0.267739C37.2673 0.251574 37.2525 0.252603 37.2431 0.244502C37.0979 0.259231 36.5751 0.116618 36.4759 0.0337294C36.2075 -0.0194063 36.2414 -0.00195417 35.9773 0.0325858Z" fill="#2C318F"/>
<path d="M7.17907 18.5772C7.16542 19.1502 6.96079 19.6345 6.56516 20.0302C6.16271 20.4326 5.675 20.6338 5.10202 20.6338C4.53586 20.6338 4.05156 20.4326 3.64911 20.0302C3.25348 19.6345 3.04884 19.1502 3.0352 18.5772V15.9988C3.0352 15.8761 3.08295 15.7567 3.17845 15.6407C3.29441 15.5452 3.41378 15.4975 3.53656 15.4975C3.66616 15.4975 3.78894 15.5452 3.9049 15.6407C4.0004 15.7567 4.04815 15.8761 4.04815 15.9988V18.5568C4.04815 18.8501 4.15046 19.0991 4.3551 19.3037C4.55973 19.5152 4.80871 19.6209 5.10202 19.6209C5.39533 19.6209 5.64771 19.5152 5.85917 19.3037C6.0638 19.0991 6.16612 18.8501 6.16612 18.5568V15.9988C6.16612 15.8624 6.21728 15.743 6.3196 15.6407C6.41509 15.5452 6.53446 15.4975 6.67771 15.4975C6.80049 15.4975 6.91986 15.5452 7.03582 15.6407C7.13132 15.7567 7.17907 15.8761 7.17907 15.9988V18.5772ZM7.81136 13.4614C7.81136 13.3249 7.86252 13.2056 7.96483 13.1033C8.06033 13.0078 8.1797 12.96 8.32294 12.96C8.44573 12.96 8.5651 13.0078 8.68106 13.1033C8.77655 13.2192 8.8243 13.3386 8.8243 13.4614V20.1222C8.8243 20.2655 8.77655 20.3849 8.68106 20.4804C8.57874 20.5827 8.45937 20.6338 8.32294 20.6338C8.1797 20.6338 8.06033 20.5827 7.96483 20.4804C7.86252 20.3849 7.81136 20.2655 7.81136 20.1222V13.4614ZM13.6039 18.5772C13.5902 19.1502 13.3856 19.6345 12.99 20.0302C12.5875 20.4326 12.0998 20.6338 11.5268 20.6338C10.9607 20.6338 10.4764 20.4326 10.0739 20.0302C9.67831 19.6345 9.47367 19.1502 9.46003 18.5772V15.9988C9.46003 15.8761 9.50778 15.7567 9.60327 15.6407C9.71923 15.5452 9.8386 15.4975 9.96139 15.4975C10.091 15.4975 10.2138 15.5452 10.3297 15.6407C10.4252 15.7567 10.473 15.8761 10.473 15.9988V18.5568C10.473 18.8501 10.5753 19.0991 10.7799 19.3037C10.9846 19.5152 11.2335 19.6209 11.5268 19.6209C11.8202 19.6209 12.0725 19.5152 12.284 19.3037C12.4886 19.0991 12.5909 18.8501 12.5909 18.5568V15.9988C12.5909 15.8624 12.6421 15.743 12.7444 15.6407C12.8399 15.5452 12.9593 15.4975 13.1025 15.4975C13.2253 15.4975 13.3447 15.5452 13.4606 15.6407C13.5561 15.7567 13.6039 15.8761 13.6039 15.9988V18.5772ZM18.38 18.5772C18.3664 19.1502 18.1618 19.6345 17.7661 20.0302C17.3637 20.4326 16.876 20.6338 16.303 20.6338C15.7368 20.6338 15.2525 20.4326 14.8501 20.0302C14.4545 19.6345 14.2498 19.1502 14.2362 18.5772V15.9988C14.2362 15.8761 14.2839 15.7567 14.3794 15.6407C14.4954 15.5452 14.6148 15.4975 14.7375 15.4975C14.8671 15.4975 14.9899 15.5452 15.1059 15.6407C15.2014 15.7567 15.2491 15.8761 15.2491 15.9988V18.5568C15.2491 18.8501 15.3514 19.0991 15.5561 19.3037C15.7607 19.5152 16.0097 19.6209 16.303 19.6209C16.5963 19.6209 16.8487 19.5152 17.0601 19.3037C17.2648 19.0991 17.3671 18.8501 17.3671 18.5568V15.9988C17.3671 15.8624 17.4183 15.743 17.5206 15.6407C17.6161 15.5452 17.7354 15.4975 17.8787 15.4975C18.0015 15.4975 18.1208 15.5452 18.2368 15.6407C18.3323 15.7567 18.38 15.8761 18.38 15.9988V18.5772ZM19.3381 18.9149C19.5768 18.8603 19.778 18.9933 19.9417 19.3139C20.0577 19.5186 20.2282 19.6209 20.4533 19.6209C20.5966 19.6209 20.7194 19.5697 20.8217 19.4674C20.924 19.3651 20.9752 19.2389 20.9752 19.0888C20.9752 18.9456 20.924 18.8228 20.8217 18.7205C20.7194 18.6182 20.5966 18.567 20.4533 18.567C20.0304 18.567 19.6689 18.4169 19.3688 18.1168C19.0686 17.8303 18.9186 17.4688 18.9186 17.0322C18.9186 16.6093 19.0686 16.2478 19.3688 15.9477C19.6689 15.6475 20.0304 15.4975 20.4533 15.4975C20.808 15.4975 21.132 15.6032 21.4254 15.8147C21.7118 16.0329 21.879 16.2819 21.9267 16.5616C21.954 16.6434 21.9301 16.773 21.8551 16.9504C21.7869 17.0595 21.6811 17.1312 21.5379 17.1653C21.2446 17.2267 21.0434 17.1005 20.9342 16.7867C20.866 16.6025 20.7057 16.5104 20.4533 16.5104C20.3101 16.5104 20.1873 16.5616 20.085 16.6639C19.9827 16.7662 19.9315 16.889 19.9315 17.0322C19.9315 17.1755 19.9827 17.2983 20.085 17.4006C20.1873 17.5029 20.3101 17.5541 20.4533 17.5541C20.8763 17.5541 21.2378 17.7041 21.5379 18.0043C21.838 18.3044 21.9881 18.6659 21.9881 19.0888C21.9881 19.4981 21.838 19.863 21.5379 20.1836C21.2378 20.4838 20.8763 20.6338 20.4533 20.6338C20.1055 20.6338 19.7883 20.5213 19.5018 20.2962C19.2358 20.0915 19.0516 19.8323 18.9493 19.5186C18.9015 19.389 18.922 19.2628 19.0107 19.14C19.0993 19.0172 19.2085 18.9422 19.3381 18.9149ZM23.5096 20.4701C23.4209 20.5724 23.3016 20.6236 23.1515 20.6236C23.0151 20.6236 22.8957 20.5724 22.7934 20.4701C22.6979 20.3746 22.6501 20.2553 22.6501 20.112C22.6501 19.9892 22.6979 19.8699 22.7934 19.7539C22.9093 19.6584 23.0287 19.6107 23.1515 19.6107C23.2947 19.6107 23.4141 19.6584 23.5096 19.7539C23.6119 19.8562 23.6631 19.9756 23.6631 20.112C23.6631 20.2553 23.6119 20.3746 23.5096 20.4701ZM25.2798 20.1222C25.2798 20.245 25.2321 20.3644 25.1366 20.4804C25.0343 20.5827 24.9149 20.6338 24.7785 20.6338C24.6352 20.6338 24.5159 20.5827 24.4204 20.4804C24.3181 20.378 24.2669 20.2587 24.2669 20.1222V18.0657C24.2669 17.3563 24.5193 16.7492 25.0241 16.2444C25.522 15.7465 26.1257 15.4975 26.8351 15.4975C26.9647 15.4975 27.0875 15.5452 27.2034 15.6407C27.2989 15.7567 27.3467 15.8761 27.3467 15.9988C27.3467 16.1216 27.2989 16.241 27.2034 16.357C27.1011 16.4593 26.9783 16.5104 26.8351 16.5104C26.4053 16.5104 26.0404 16.6605 25.7403 16.9606C25.4333 17.2676 25.2798 17.6359 25.2798 18.0657V20.1222ZM32.109 18.5772C32.0953 19.1502 31.8907 19.6345 31.4951 20.0302C31.0926 20.4326 30.6049 20.6338 30.0319 20.6338C29.4658 20.6338 28.9815 20.4326 28.579 20.0302C28.1834 19.6345 27.9788 19.1502 27.9651 18.5772V15.9988C27.9651 15.8761 28.0129 15.7567 28.1084 15.6407C28.2243 15.5452 28.3437 15.4975 28.4665 15.4975C28.5961 15.4975 28.7189 15.5452 28.8348 15.6407C28.9303 15.7567 28.9781 15.8761 28.9781 15.9988V18.5568C28.9781 18.8501 29.0804 19.0991 29.285 19.3037C29.4897 19.5152 29.7386 19.6209 30.0319 19.6209C30.3253 19.6209 30.5776 19.5152 30.7891 19.3037C30.9937 19.0991 31.096 18.8501 31.096 18.5568V15.9988C31.096 15.8624 31.1472 15.743 31.2495 15.6407C31.345 15.5452 31.4644 15.4975 31.6076 15.4975C31.7304 15.4975 31.8498 15.5452 31.9657 15.6407C32.0612 15.7567 32.109 15.8761 32.109 15.9988V18.5772Z" fill="#FEFEFE"/>
</svg>
