<svg width="16" height="16" viewBox="0 0 16 16" fill="none" xmlns="http://www.w3.org/2000/svg">
<rect width="16" height="16" fill="white" fill-opacity="0.01"/>
<g clip-path="url(#clip0_177_38428)">
<path d="M0.499756 9.89918C0.632364 9.89918 0.759541 9.95186 0.853309 10.0456C0.947077 10.1394 0.999756 10.2666 0.999756 10.3992V12.8992C0.999756 13.1644 1.10511 13.4188 1.29265 13.6063C1.48019 13.7938 1.73454 13.8992 1.99976 13.8992H13.9998C14.265 13.8992 14.5193 13.7938 14.7069 13.6063C14.8944 13.4188 14.9998 13.1644 14.9998 12.8992V10.3992C14.9998 10.2666 15.0524 10.1394 15.1462 10.0456C15.24 9.95186 15.3671 9.89918 15.4998 9.89918C15.6324 9.89918 15.7595 9.95186 15.8533 10.0456C15.9471 10.1394 15.9998 10.2666 15.9998 10.3992V12.8992C15.9998 13.4296 15.789 13.9383 15.414 14.3134C15.0389 14.6885 14.5302 14.8992 13.9998 14.8992H1.99976C1.46932 14.8992 0.960615 14.6885 0.585542 14.3134C0.21047 13.9383 -0.000244141 13.4296 -0.000244141 12.8992V10.3992C-0.000244141 10.2666 0.0524343 10.1394 0.146202 10.0456C0.239971 9.95186 0.367148 9.89918 0.499756 9.89918Z" fill="white"/>
<path d="M7.64576 1.14518C7.6922 1.09862 7.74738 1.06168 7.80812 1.03647C7.86887 1.01127 7.93399 0.998291 7.99976 0.998291C8.06552 0.998291 8.13064 1.01127 8.19139 1.03647C8.25213 1.06168 8.30731 1.09862 8.35376 1.14518L11.3538 4.14518C11.4476 4.23907 11.5004 4.36641 11.5004 4.49918C11.5004 4.63196 11.4476 4.7593 11.3538 4.85318C11.2599 4.94707 11.1325 4.99982 10.9998 4.99982C10.867 4.99982 10.7396 4.94707 10.6458 4.85318L8.49976 2.70618V11.4992C8.49976 11.6318 8.44708 11.759 8.35331 11.8527C8.25954 11.9465 8.13236 11.9992 7.99976 11.9992C7.86715 11.9992 7.73997 11.9465 7.6462 11.8527C7.55243 11.759 7.49976 11.6318 7.49976 11.4992V2.70618L5.35376 4.85318C5.30727 4.89967 5.25208 4.93655 5.19134 4.96171C5.1306 4.98687 5.0655 4.99982 4.99976 4.99982C4.93401 4.99982 4.86891 4.98687 4.80817 4.96171C4.74743 4.93655 4.69224 4.89967 4.64576 4.85318C4.59927 4.8067 4.56239 4.75151 4.53723 4.69077C4.51207 4.63003 4.49912 4.56493 4.49912 4.49918C4.49912 4.43344 4.51207 4.36834 4.53723 4.3076C4.56239 4.24686 4.59927 4.19167 4.64576 4.14518L7.64576 1.14518Z" fill="white"/>
</g>
<defs>
<clipPath id="clip0_177_38428">
<rect width="16" height="16" fill="white"/>
</clipPath>
</defs>
</svg>
