<svg width="45" height="45" viewBox="0 0 45 45" fill="none" xmlns="http://www.w3.org/2000/svg">
<path fill-rule="evenodd" clip-rule="evenodd" d="M3.30235 0.164774C3.15704 0.25529 2.35462 1.02099 1.51908 1.86648C0.131389 3.27062 0 3.43038 0 3.71318C0 3.95291 0.349697 4.63433 1.55043 6.73474C2.40314 8.22633 3.14806 9.49662 3.20574 9.55753C3.26342 9.61851 4.0006 9.84437 4.84388 10.0595L6.37714 10.4506L11.1818 15.2446L15.9864 20.0387L16.5117 19.5089L17.037 18.9792L12.1071 14.0572L7.1771 9.13526L6.6047 8.96592C6.28987 8.87286 5.61619 8.6927 5.10763 8.56554L4.18297 8.33451L2.9501 6.17258C2.27202 4.98348 1.70648 3.96829 1.69327 3.91653C1.68015 3.86477 2.15568 3.33987 2.75002 2.75002L3.83072 1.67762L6.08433 2.96462L8.33794 4.25162L8.67619 5.66279L9.01444 7.07396L13.995 12.0612L18.9756 17.0485L19.5043 16.5208L20.0331 15.9931L15.2163 11.1821L10.3994 6.37092L10.0329 4.90175C9.83131 4.09379 9.62146 3.37361 9.5666 3.30146C9.41222 3.09872 3.94802 -0.000351489 3.74557 2.99015e-08C3.64711 0.000175789 3.44765 0.0743462 3.30235 0.164774ZM34.7482 0.0906918C30.0943 0.823344 26.8358 4.76888 27.0621 9.39715C27.0894 9.95606 27.1355 10.4925 27.1646 10.5891C27.2077 10.7327 25.7096 12.269 18.9944 18.9676L10.7715 27.1703L9.85315 27.0781C6.02727 26.6938 2.45008 28.7436 0.795558 32.2681C0.174452 33.5913 0.0430626 34.2622 0.0505479 36.0742C0.0565362 37.5333 0.0756458 37.7174 0.296859 38.447C1.31002 41.7891 3.8619 44.1334 7.23496 44.8207C11.8897 45.7692 16.4928 42.8651 17.7082 38.2132C17.9273 37.3746 18.027 35.5755 17.8974 34.8L17.8167 34.3166L19.8034 32.3193L21.7901 30.322L22.77 31.2867C23.9391 32.4378 24.0241 32.4624 24.736 31.856C25.3072 31.3695 25.7249 31.3193 26.0986 31.6922C26.4696 32.0625 26.4204 32.4648 25.9344 33.0328C25.2257 33.8614 24.8565 33.3808 30.5357 39.0223C35.0354 43.4922 35.596 44.0195 36.1626 44.3159C37.9071 45.2283 40.1258 45.2277 41.8594 44.3142C42.7733 43.8326 43.8884 42.7055 44.3599 41.7864C44.8628 40.8062 45 40.2035 45 38.9743C45 37.747 44.8633 37.1447 44.3617 36.1621C44.0189 35.4905 43.7819 35.2379 39.0473 30.4983C34.347 25.7928 34.0757 25.5375 33.7776 25.5375C33.5344 25.5375 33.3883 25.6105 33.1324 25.8598C32.6713 26.3091 32.327 26.4173 31.9403 26.2342C31.6221 26.0835 31.4384 25.7927 31.4384 25.4396C31.4384 25.3121 31.5971 25.0486 31.8346 24.7817C32.1525 24.4246 32.2309 24.2721 32.2309 24.0113C32.2309 23.7152 32.1461 23.6012 31.2851 22.7393L30.3393 21.7926L32.3256 19.8104L34.3118 17.8283L35.0975 17.9327C36.6668 18.1411 38.4801 17.8189 40.0245 17.0574C42.379 15.8964 43.9636 13.9802 44.7557 11.3361C45.1056 10.1686 45.0589 7.39911 44.6769 6.65275C44.5298 6.36556 44.1752 6.20615 43.8586 6.28515C43.7271 6.31793 42.638 7.32899 41.2133 8.74077L38.7916 11.1407L36.9474 10.5134L35.1033 9.88611L34.4932 8.0532L33.8831 6.22021L36.3154 3.78744C38.5972 1.50494 38.7476 1.33498 38.7476 1.03839C38.7476 0.581148 38.5218 0.358197 37.9089 0.21056C37.2472 0.0510581 35.436 -0.0175759 34.7482 0.0906918ZM34.4098 3.58145C32.4793 5.50909 32.319 5.69276 32.319 5.97608C32.319 6.45414 33.8015 10.8039 34.0388 11.0225C34.1542 11.1285 35.223 11.5303 36.6059 11.9873C38.4592 12.5998 39.032 12.7564 39.2357 12.7062C39.4136 12.6622 40.1275 12.0146 41.4889 10.662C42.5849 9.57299 43.5038 8.71801 43.531 8.76186C43.6096 8.88876 43.4462 10.3585 43.2845 10.9795C42.6204 13.5299 40.5445 15.5715 37.911 16.2641C37.0562 16.4889 35.677 16.5284 34.6433 16.3577C34.0176 16.2544 33.8979 16.2565 33.6746 16.3748C33.3149 16.5653 16.4055 33.4778 16.3055 33.747C16.2508 33.8944 16.2631 34.1731 16.3423 34.5819C16.4077 34.9193 16.4627 35.5784 16.4645 36.0466C16.4784 39.7096 13.911 42.7846 10.2623 43.475C9.33332 43.6508 7.76959 43.5846 6.91292 43.3333C4.438 42.6071 2.57812 40.8312 1.74954 38.403C1.49451 37.6556 1.46087 37.4394 1.42794 36.3379C1.39711 35.306 1.42098 34.9828 1.5757 34.3341C2.39152 30.9128 5.3993 28.5342 8.89433 28.5465C9.40289 28.5482 10.0324 28.5917 10.2933 28.643C11.3114 28.8432 10.402 29.6455 19.9741 20.1021C24.7371 15.3534 28.6713 11.375 28.7165 11.2614C28.7724 11.1211 28.7527 10.811 28.6551 10.2947C28.484 9.38976 28.5289 7.99599 28.7573 7.1179C29.5992 3.88243 32.5478 1.55995 35.8848 1.50397L36.5005 1.4936L34.4098 3.58145ZM21.9716 21.9696L13.6948 30.2295L14.2232 30.7568L14.7515 31.2841L23.0284 23.0241L31.3052 14.7641L30.7768 14.2369L30.2485 13.7096L21.9716 21.9696ZM30.2362 24.4009C30.0953 24.6409 29.9954 24.9721 29.9659 25.2968C29.797 27.1544 31.7129 28.4275 33.379 27.5649L33.7931 27.3505L38.1414 31.6905L42.4898 36.0305L39.2755 39.2381L36.0612 42.4457L31.7119 38.1048L27.3626 33.7638L27.5951 33.2979C28.0505 32.3861 27.826 31.1431 27.0944 30.526C26.3409 29.8904 25.2882 29.7519 24.4618 30.1798L24.0075 30.415L23.4009 29.8095L22.7941 29.2041L26.0362 26.0272L29.2784 22.8503L29.8691 23.4353L30.4598 24.0202L30.2362 24.4009ZM30.7778 30.7576L30.2524 31.2874L34.0152 35.0424L37.7781 38.7975L38.3066 38.2701L38.8351 37.7427L35.0691 33.9853L31.3031 30.2279L30.7778 30.7576ZM6.26706 31.7022C6.02824 31.9051 3.78995 35.6406 3.73104 35.9346C3.69476 36.1155 3.94485 36.595 4.93265 38.2392C5.78087 39.6509 6.24928 40.3468 6.39652 40.4137C6.53953 40.4788 7.43319 40.5122 9.02915 40.5122H11.4453L11.7016 40.2705C12.1172 39.8785 14.2138 36.2986 14.21 35.9875C14.2065 35.6995 12.0271 31.9821 11.6977 31.7022C11.5344 31.5635 11.2683 31.5484 8.98239 31.5484C6.69646 31.5484 6.43033 31.5635 6.26706 31.7022ZM11.7162 34.5299L12.6091 36.0175L11.7085 37.5178L10.8079 39.0182H8.98239H7.15685L6.26433 37.5313C5.77347 36.7134 5.37182 36.0234 5.37182 35.9979C5.37182 35.9571 6.67532 33.7634 7.01049 33.2401C7.13519 33.0454 7.16513 33.0424 8.98019 33.0424H10.8233L11.7162 34.5299ZM43.4231 37.8977C43.675 38.9183 43.4748 40.2628 42.9249 41.2447C42.5944 41.8347 41.7806 42.6203 41.1592 42.9491C40.1446 43.486 38.8074 43.6316 37.7432 43.321L37.3994 43.2207L40.2966 40.3285C41.89 38.7379 43.2197 37.4364 43.2515 37.4364C43.2832 37.4364 43.3604 37.644 43.4231 37.8977Z" fill="black"/>
</svg>
