<svg width="45" height="42" viewBox="0 0 45 42" fill="none" xmlns="http://www.w3.org/2000/svg">
<path fill-rule="evenodd" clip-rule="evenodd" d="M1.74145 0.0542471C1.10765 0.208367 0.515101 0.68996 0.170662 1.33075C0.00577431 1.63745 0 2.28196 0 20.2443V38.8403L0.198158 39.2032C0.431787 39.6309 0.881172 40.0685 1.329 40.3042C1.63852 40.4673 2.24362 40.4732 18.5602 40.4732H35.4705L35.8371 40.277C36.5871 39.8757 37.0324 39.2265 37.1318 38.3894L37.1926 37.8776L39.1728 39.8207C40.6805 41.3 41.2407 41.7931 41.5197 41.8867C42.0074 42.0504 42.9957 42.034 43.4161 41.8553C43.902 41.6488 44.5405 41.0324 44.7817 40.537C45.0725 39.9394 45.0728 38.9991 44.7824 38.4321C44.6422 38.1584 43.5285 36.9871 41.4034 34.8778L38.2336 31.7317L38.6092 30.9317C40.0822 27.7939 39.7241 24.0794 37.6762 21.2544L37.1661 20.5507V11.3201C37.1661 1.04056 37.1918 1.47925 36.5486 0.774504C36.3658 0.574301 36.0485 0.321577 35.8434 0.212994L35.4705 0.0154222L18.7435 0.00145255C9.54358 -0.006258 1.89268 0.0175085 1.74145 0.0542471ZM35.458 1.66058L35.6996 1.89979V10.5511V19.2025L35.1726 18.8493C30.1436 15.4788 23.1469 17.5088 20.7388 23.037C20.133 24.4279 19.9858 25.1887 19.9891 26.9116C19.9916 28.2366 20.0196 28.5095 20.2321 29.2889C20.6968 30.9923 21.5595 32.4939 22.7662 33.6995C25.6702 36.6008 30.087 37.3967 33.8023 35.6883L34.609 35.3173L35.1544 35.8514L35.6996 36.3854V37.4793C35.6996 38.728 35.6274 38.9122 35.0783 39.0631C34.6043 39.1934 2.51602 39.1934 2.04198 39.0631C1.36355 38.8766 1.42065 40.6053 1.42065 20.2365V1.89979L1.66226 1.66058L1.90395 1.42146H18.5602H35.2163L35.458 1.66058ZM9.05818 4.67695C7.79444 5.13822 6.96001 6.1015 6.6823 7.41973C6.44858 8.52896 6.75168 9.67539 7.51049 10.5528L7.8322 10.9249L7.22728 11.275C6.43776 11.7319 5.40976 12.8153 5.01454 13.6069C4.48505 14.6673 4.1967 16.2015 4.44179 16.6547C4.57854 16.9075 5.00693 17.0496 5.30023 16.9392C5.60572 16.8242 5.69022 16.6252 5.81377 15.7302C6.05079 14.0133 7.15047 12.6626 8.79119 12.0732C9.98719 11.6435 11.6363 11.8165 12.6832 12.4814C13.8933 13.2499 14.6284 14.446 14.7991 15.9242C14.8886 16.6998 15.0779 16.9635 15.545 16.9635C15.7545 16.9635 15.9038 16.8896 16.062 16.7075C16.2687 16.4697 16.28 16.4056 16.2206 15.8079C16.0299 13.8888 14.793 11.9872 13.1975 11.1604L12.7078 10.9066L13.0758 10.5115C13.2783 10.2941 13.5536 9.88457 13.6878 9.60146C13.9033 9.14626 13.9316 8.97617 13.9316 8.13228C13.9316 7.24112 13.912 7.1387 13.6371 6.58581C13.253 5.81367 12.6171 5.18249 11.8693 4.83107C11.353 4.58842 11.1574 4.54787 10.4028 4.52755C9.72873 4.50931 9.42507 4.54306 9.05818 4.67695ZM19.676 5.35058C19.4116 5.62916 19.422 6.00181 19.7017 6.27866L19.9266 6.50136H26.1217H32.3167L32.5417 6.27866C32.8166 6.00661 32.8287 5.69674 32.5767 5.3797L32.3868 5.14067H26.131H19.8753L19.676 5.35058ZM11.4539 6.17733C12.6349 6.8623 12.9369 8.43498 12.0965 9.52417C11.6536 10.0985 11.081 10.3576 10.2654 10.3531C9.55284 10.3491 9.07651 10.1594 8.6439 9.70732C8.03338 9.06925 7.84943 8.01653 8.21055 7.22706C8.45995 6.68179 8.79559 6.34261 9.34882 6.07682C9.97225 5.7772 10.8351 5.81839 11.4539 6.17733ZM19.7017 10.2618C19.4267 10.5339 19.4146 10.8438 19.6667 11.1608L19.8566 11.3998H26.1217H32.3868L32.5767 11.1608C32.8287 10.8438 32.8166 10.5339 32.5417 10.2618L32.3167 10.0391H26.1217H19.9266L19.7017 10.2618ZM19.7017 15.1603C19.2393 15.618 19.5173 16.2396 20.2309 16.3437C20.4462 16.3752 21.8896 16.388 23.4384 16.3723C26.1127 16.3451 26.2634 16.3345 26.4343 16.1622C26.5332 16.0624 26.6417 15.8696 26.6752 15.7336C26.7243 15.5344 26.6824 15.4333 26.4589 15.212L26.1816 14.9376H23.0541H19.9266L19.7017 15.1603ZM30.8124 18.6646C32.9489 18.9582 34.936 20.067 36.2432 21.695C38.4505 24.4442 38.701 28.1748 36.8814 31.2011C36.364 32.0616 34.9455 33.4654 34.0761 33.9775C31.5119 35.4877 28.5037 35.5792 25.8498 34.2277C23.6531 33.109 22.102 31.1154 21.526 28.6707C21.2876 27.6585 21.3114 25.8631 21.5762 24.8706C22.1857 22.5873 23.8277 20.55 25.8893 19.5194C27.4947 18.7169 29.1283 18.4332 30.8124 18.6646ZM4.82023 19.935C4.34986 20.1211 4.21146 20.6401 4.52877 21.028L4.70401 21.2421L12.0001 21.2664C18.4141 21.2878 19.3291 21.2739 19.5684 21.1513C20.0671 20.8961 20.014 20.2226 19.474 19.9521C19.1908 19.8103 5.17659 19.794 4.82023 19.935ZM28.47 19.9325C24.9604 20.5512 22.4208 23.7176 22.6205 27.2254C22.6858 28.3733 22.8551 29.0123 23.3664 30.0412C24.269 31.8579 25.952 33.2092 27.9548 33.7251C28.9533 33.9822 30.516 33.9839 31.496 33.7286C35.5269 32.679 37.7976 28.4745 36.4399 24.5748C35.681 22.395 33.7913 20.6568 31.5293 20.0581C30.8666 19.8826 29.152 19.8122 28.47 19.9325ZM31.1632 21.4107C32.758 21.8307 34.0821 22.904 34.838 24.3895C35.6576 26.0003 35.6124 28.0394 34.7221 29.6239C34.2912 30.3907 33.2573 31.414 32.4825 31.8405C31.3126 32.4844 29.6939 32.7036 28.3777 32.3966C26.5948 31.9807 24.9443 30.5105 24.3355 28.796C23.296 25.869 24.7474 22.7814 27.7218 21.5924C28.7175 21.1943 30.0704 21.1229 31.1632 21.4107ZM4.54362 25.0643C4.29156 25.3813 4.30366 25.6912 4.57863 25.9633L4.80355 26.1859H11.2736H17.7436L17.9685 25.9633C18.2553 25.6795 18.2553 25.3317 17.9685 25.048L17.7436 24.8253H11.2386H4.73353L4.54362 25.0643ZM4.57863 29.9464C4.28992 30.2321 4.28451 30.6257 4.56571 30.8872L4.77789 31.0844H11.6165H18.4552L18.6524 30.8364C18.889 30.5386 18.8445 30.1247 18.5497 29.8825C18.3696 29.7344 17.8991 29.7237 11.5801 29.7237H4.80355L4.57863 29.9464ZM40.3851 35.7788C41.9785 37.3628 43.3496 38.7599 43.4321 38.8832C43.62 39.1644 43.6251 39.7193 43.4429 40.0679C43.1379 40.6518 42.2926 40.7865 41.6939 40.3466C41.4973 40.2021 40.0868 38.8418 38.5596 37.3235L35.7827 34.5631L36.589 33.743C37.0324 33.292 37.4162 32.9174 37.4416 32.9108C37.4671 32.9041 38.7917 34.1948 40.3851 35.7788ZM4.72179 34.738C4.24583 34.9781 4.24482 35.6942 4.71996 35.9374C4.95936 36.0599 5.92257 36.0737 12.7466 36.0525L20.5011 36.0282L20.6764 35.8141C20.9001 35.5406 20.9001 35.1552 20.6764 34.8817L20.5011 34.6676L12.7253 34.6454C6.59861 34.6279 4.90107 34.6476 4.72179 34.738Z" fill="black"/>
</svg>
