<svg width="27" height="26" viewBox="0 0 27 26" fill="none" xmlns="http://www.w3.org/2000/svg">
<path fill-rule="evenodd" clip-rule="evenodd" d="M12.0523 0.0755272C6.23657 0.7942 1.66584 5.45876 1.06397 11.2895C0.974783 12.1537 1.0288 13.7899 1.17386 14.6157C1.40345 15.9235 1.78338 17.074 2.3739 18.2496L2.67061 18.8405L1.7865 22.0695C1.30022 23.8455 0.91015 25.3043 0.919602 25.3113C0.929107 25.3183 2.41012 24.9348 4.21076 24.4592C6.8321 23.7667 7.51096 23.6043 7.61667 23.6446C7.68928 23.6723 8.03383 23.8243 8.38234 23.9823C9.51426 24.4955 10.703 24.8359 11.9537 25.005C12.823 25.1226 14.3486 25.1219 15.1942 25.0035C17.9696 24.6151 20.4493 23.3878 22.4037 21.4354C23.4258 20.4144 24.1054 19.4806 24.7524 18.2082C25.335 17.0623 25.7462 15.8131 25.9759 14.4905C26.1102 13.7174 26.11 11.4459 25.9756 10.6357C25.7485 9.26709 25.3979 8.17361 24.799 6.96581C23.0946 3.52869 19.9472 1.07855 16.1839 0.259341C15.0108 0.00397679 13.2613 -0.0738575 12.0523 0.0755272ZM15.3526 2.26101C16.8673 2.54114 18.1234 3.04717 19.3657 3.87773C21.4867 5.29575 23.048 7.49771 23.6651 9.94131C24.1183 11.7358 24.0827 13.774 23.5679 15.4996C22.7357 18.2896 20.7521 20.6381 18.1563 21.9066C16.6471 22.6441 15.2507 22.9657 13.5572 22.9657C11.6162 22.9657 9.89557 22.4947 8.13949 21.4826L7.84378 21.3122L5.90041 21.8229C4.83154 22.1037 3.94891 22.3253 3.93898 22.3154C3.92905 22.3055 4.14835 21.4692 4.42631 20.4568C4.70422 19.4445 4.93366 18.5791 4.93614 18.5336C4.93863 18.4881 4.80197 18.2251 4.63246 17.9492C2.14208 13.8961 2.7948 8.5509 6.1929 5.17045C7.88323 3.48888 10.0232 2.45549 12.4219 2.16242C13.0698 2.08327 14.6852 2.13761 15.3526 2.26101ZM8.62772 6.86844C8.32235 7.01962 7.76437 7.67862 7.53108 8.16363C7.07284 9.11634 7.08218 10.3173 7.55647 11.4293C8.13933 12.7958 9.66433 14.7361 11.1698 16.0264C12.225 16.9309 13.1067 17.4609 14.4021 17.9692C15.7253 18.4885 15.9792 18.5484 16.8575 18.548C17.5484 18.5477 17.658 18.5346 17.9792 18.4136C18.5073 18.2146 18.9015 17.9639 19.2942 17.5774C19.5989 17.2774 19.6603 17.1835 19.76 16.8645C19.8844 16.4667 19.9555 15.8266 19.8999 15.6049C19.8708 15.4891 19.7216 15.395 18.9714 15.0194C17.5969 14.3312 17.0429 14.0945 16.8074 14.0945C16.6146 14.0945 16.5817 14.1181 16.3484 14.4245C15.8152 15.1248 15.326 15.6672 15.1985 15.6992C15.0459 15.7375 14.7459 15.6276 14.053 15.2797C12.9313 14.7163 12.016 13.9629 11.2292 12.9552C10.801 12.4068 10.4153 11.7818 10.4153 11.6362C10.4153 11.5738 10.6139 11.2638 10.8566 10.9473C11.3322 10.3269 11.4714 10.0954 11.4714 9.92499C11.4714 9.86521 11.3683 9.57294 11.2422 9.27554C11.1162 8.97809 10.862 8.36646 10.6773 7.9163C10.4484 7.35836 10.2877 7.04317 10.1725 6.92621L10.0034 6.75459L9.43052 6.75464C8.95026 6.75464 8.82041 6.77307 8.62772 6.86844Z" fill="#56AC68"/>
</svg>
